<svg version="1.1" id="Layer_1" xmlns="http://www.w3.org/2000/svg" xmlns:xlink="http://www.w3.org/1999/xlink" x="0px" y="0px"
	 width="100%" viewBox="0 0 400 400" enable-background="new 0 0 400 400" xml:space="preserve">
<path fill="#000000" opacity="1.000000" stroke="none" 
	d="
M230.794235,189.304153 
	C246.554962,210.119202 229.332382,234.618698 209.158493,238.300537 
	C186.331223,242.466644 165.410034,226.285477 165.033432,203.010025 
	C164.637283,178.525757 187.438843,156.845886 215.060257,163.991165 
	C216.499283,164.363419 218.934784,164.579025 218.347061,166.872223 
	C217.773590,169.109848 215.691345,168.236465 214.124237,167.840347 
	C191.480865,162.116928 174.354858,177.396454 169.925949,194.975922 
	C165.767319,211.482620 176.406738,229.056839 193.760117,233.840393 
	C210.042740,238.328766 227.514862,228.644791 232.020874,212.634232 
	C235.567551,200.032303 227.424271,186.572266 213.827316,182.562164 
	C200.930283,178.758484 188.650909,184.850891 184.970566,196.879440 
	C182.775757,204.052811 185.603851,211.749603 191.663437,215.094421 
	C197.736435,218.446625 207.049301,217.082031 211.532104,212.183090 
	C215.182968,208.193314 215.897919,202.478165 213.019760,198.951004 
	C210.631119,196.023727 207.710403,194.425064 203.808792,196.099594 
	C200.302414,197.604492 197.678558,199.569397 198.994781,204.020981 
	C199.333191,205.165543 199.389328,206.515335 197.869263,206.858826 
	C196.177612,207.241104 195.448563,205.859909 195.085068,204.603165 
	C194.088364,201.157059 194.769958,198.025330 197.281281,195.362350 
	C200.938721,191.484039 207.831879,190.415451 212.516525,193.014938 
	C217.275955,195.655899 219.964233,201.865280 218.611069,207.092072 
	C215.939545,217.411194 205.724045,223.179062 194.838364,220.514557 
	C184.449371,217.971634 178.078339,207.824631 180.524673,197.717529 
	C185.548553,176.961426 211.130371,170.432007 227.494659,185.742752 
	C228.586014,186.763840 229.544846,187.926575 230.794235,189.304153 
z"/>
<path fill="#000000" opacity="1.000000" stroke="none" 
	d="
M279.993469,292.262543 
	C262.393707,287.085754 246.616119,279.568695 234.826065,265.451294 
	C227.824753,257.067902 228.020981,247.695221 235.176651,238.574295 
	C241.701614,230.257294 251.877365,227.294846 260.466888,231.310791 
	C264.778046,233.326416 268.005676,236.758514 271.198730,240.145325 
	C284.682312,254.447113 291.619873,271.839508 295.009216,290.894897 
	C295.596619,294.197418 294.677490,295.742096 291.071442,294.832855 
	C287.528015,293.939392 283.954407,293.165619 279.993469,292.262543 
M289.496124,283.822906 
	C284.824921,265.874451 276.941711,249.772812 262.443268,237.614029 
	C255.044281,231.409058 247.450684,232.053436 240.173706,239.149750 
	C233.070969,246.076157 232.004318,255.529190 237.745605,262.472870 
	C247.855957,274.700653 261.232300,281.912354 276.023682,286.754517 
	C280.628662,288.261993 285.227142,290.251526 290.588654,289.812775 
	C290.221100,287.825500 289.922607,286.211487 289.496124,283.822906 
z"/>
<path fill="#000000" opacity="1.000000" stroke="none" 
	d="
M109.281113,284.491943 
	C113.839935,265.008118 122.166382,248.133759 137.204880,235.057373 
	C146.084625,227.336151 157.260117,227.819565 165.759064,236.322174 
	C174.884354,245.451355 175.768616,256.718872 167.961563,265.794250 
	C155.038651,280.816620 137.896652,288.400848 119.225998,293.244507 
	C118.905701,293.327576 118.564156,293.326263 118.240860,293.400604 
	C107.064499,295.970917 107.064644,295.971527 109.281113,284.491943 
M113.379555,284.636261 
	C113.555733,286.404968 111.978767,288.057251 112.974968,289.970520 
	C115.741554,290.220673 118.271309,289.313507 120.790443,288.605469 
	C137.914566,283.792450 153.555328,276.442047 165.324326,262.461121 
	C167.813843,259.503754 169.138336,256.259766 168.924728,252.395386 
	C168.449234,243.794312 163.625626,238.278397 156.203033,234.732056 
	C149.166092,231.369965 143.667648,234.536453 138.623199,239.206650 
	C125.458992,251.394241 117.915718,266.745148 113.379555,284.636261 
z"/>
<path fill="#000000" opacity="1.000000" stroke="none" 
	d="
M183.312134,259.487366 
	C191.261566,251.063797 203.416489,249.100967 213.195847,254.402206 
	C219.589340,257.868011 222.803192,263.306793 223.315887,270.499817 
	C224.232483,283.359741 221.781296,295.653046 216.973679,307.499939 
	C213.779190,315.371765 209.816803,322.874817 204.918564,329.842896 
	C203.997955,331.152527 203.441666,332.900330 201.300339,333.344879 
	C198.216110,331.364594 196.665512,327.961090 194.773132,324.932251 
	C184.685074,308.785950 178.910187,291.382874 179.654022,272.101379 
	C179.824615,267.679413 180.697540,263.544403 183.312134,259.487366 
M218.644562,286.210358 
	C219.310257,281.938904 219.896103,277.671600 219.639923,273.317841 
	C218.881531,260.428894 208.714325,252.999802 196.119553,256.189545 
	C188.544067,258.108093 185.044174,262.345642 184.105026,270.122223 
	C182.757965,281.276337 184.792908,291.967377 188.360046,302.417938 
	C191.356903,311.197754 195.443314,319.450348 201.565018,327.282867 
	C210.142319,314.589508 215.913589,301.498627 218.644562,286.210358 
z"/>
<path fill="#000000" opacity="1.000000" stroke="none" 
	d="
M169.740479,139.477905 
	C175.569519,149.518799 173.249603,160.884155 164.144302,168.274323 
	C155.109573,175.607208 145.093460,175.162125 136.275391,167.110352 
	C119.926880,152.182541 111.734024,133.103622 107.992607,111.744026 
	C107.521652,109.055359 108.169594,107.445572 111.372055,108.101471 
	C133.834549,112.702042 154.548569,120.562996 169.740479,139.477905 
M147.191513,125.277779 
	C136.429062,119.330223 125.251900,114.566727 112.254791,112.697258 
	C116.299057,133.432724 124.412155,151.188324 140.003143,164.945160 
	C147.636276,171.680344 155.599991,171.128586 162.979065,163.712936 
	C170.122192,156.534454 170.940704,147.119186 164.965271,139.985855 
	C160.111176,134.191132 154.234634,129.591888 147.191513,125.277779 
z"/>
<path fill="#000000" opacity="1.000000" stroke="none" 
	d="
M235.342133,164.577301 
	C227.293015,152.680313 227.730194,144.896225 237.273514,134.842331 
	C252.132523,119.188324 271.266846,112.076981 291.888123,108.094879 
	C294.754669,107.541321 295.569458,109.170616 295.138306,111.549980 
	C291.022217,134.265259 282.358246,154.599243 263.842316,169.482895 
	C255.106964,176.504639 245.063293,174.679764 235.342133,164.577301 
M234.385269,153.791153 
	C239.973480,170.746201 254.024384,174.135391 266.609070,161.630966 
	C276.882721,151.422791 283.498230,139.109390 287.664642,125.388885 
	C288.884186,121.372818 290.423981,117.365952 290.222015,112.522804 
	C270.277344,116.834679 252.421143,124.069633 238.618317,139.264679 
	C235.044449,143.199020 233.316284,147.634140 234.385269,153.791153 
z"/>
<path fill="#000000" opacity="1.000000" stroke="none" 
	d="
M108.820770,181.561493 
	C117.367104,179.199097 125.714638,179.185776 133.981216,179.866074 
	C145.338379,180.800690 153.219055,192.457932 150.971878,204.229858 
	C148.373840,217.839920 141.870087,223.256393 127.930779,223.318405 
	C105.716454,223.417221 86.726753,214.741684 68.152367,201.506729 
	C80.531578,191.427811 93.748909,185.129333 108.820770,181.561493 
M140.761307,186.603699 
	C137.060349,183.909790 132.698059,183.411346 128.390106,183.417175 
	C109.501991,183.442734 92.434608,189.301712 76.979401,200.031128 
	C76.509583,200.357269 76.264420,201.007019 75.735863,201.760620 
	C91.466644,212.369965 108.297073,219.030212 127.114754,219.457092 
	C132.627396,219.582123 138.523987,218.966675 142.578583,213.953720 
	C148.863968,206.182785 148.351440,194.370239 140.761307,186.603699 
z"/>
<path fill="#000000" opacity="1.000000" stroke="none" 
	d="
M206.313400,150.735687 
	C189.887115,152.856064 179.857040,144.032684 179.611313,128.147278 
	C179.285583,107.086823 187.311111,88.952469 198.691544,71.918388 
	C199.409805,70.843315 200.111954,69.635849 201.989929,69.284462 
	C206.954788,74.280029 210.418015,80.555565 213.537491,86.929710 
	C220.279144,100.705223 224.064163,115.199554 223.373718,130.726105 
	C222.885925,141.695892 217.536163,148.327866 206.313400,150.735687 
M192.687714,145.003189 
	C197.734970,147.374451 203.046829,147.563568 208.258224,146.110687 
	C216.376831,143.847290 220.107986,137.110031 219.598969,125.761398 
	C218.805267,108.065483 212.978470,92.005119 203.259354,77.290695 
	C202.814224,76.616798 202.272766,75.926697 201.267502,76.122086 
	C191.263229,87.701698 182.231628,114.615868 183.394592,129.406845 
	C183.899277,135.825851 185.834030,141.446060 192.687714,145.003189 
z"/>
<path fill="#000000" opacity="1.000000" stroke="none" 
	d="
M317.440063,212.575912 
	C302.948547,220.063721 288.009979,223.926056 271.960175,223.333694 
	C259.084900,222.858490 251.620636,215.113190 251.654495,201.828827 
	C251.688553,188.460709 259.600189,180.105316 272.074890,179.622894 
	C294.647034,178.750031 313.938293,187.366745 332.014130,199.732407 
	C332.531158,200.086121 332.904266,200.650192 333.957092,201.764633 
	C328.863586,206.083511 323.494202,209.488785 317.440063,212.575912 
M323.650665,204.338440 
	C324.702454,203.404968 326.511078,203.264008 326.778473,201.196655 
	C320.604401,196.404327 313.535065,193.098175 306.343201,190.066528 
	C295.964508,185.691513 285.135071,183.120193 273.833801,183.418793 
	C260.337646,183.775375 252.679611,194.365326 256.290100,207.364960 
	C259.320251,218.275070 266.534821,219.852493 278.541107,219.365784 
	C294.651306,218.712677 309.471802,213.380676 323.650665,204.338440 
z"/>
</svg>