<svg version="1.1" id="Layer_1" xmlns="http://www.w3.org/2000/svg" xmlns:xlink="http://www.w3.org/1999/xlink" x="0px" y="0px"
	 width="100%" viewBox="0 0 400 400" enable-background="new 0 0 400 400" xml:space="preserve">
<path fill="#000000" opacity="1.000000" stroke="none" 
	d="
M215.087219,247.062881 
	C210.484100,253.216156 206.106842,259.094543 201.682755,264.937439 
	C197.775299,270.098022 197.278702,270.144775 193.454178,265.048859 
	C180.856674,248.263535 168.325958,231.428116 155.760086,214.619034 
	C140.003082,193.541229 124.215446,172.486191 108.512772,151.367981 
	C107.195213,149.596024 104.590874,147.878006 105.742126,145.379471 
	C106.929070,142.803513 109.886322,143.811569 112.098999,143.809860 
	C168.905258,143.765823 225.711578,143.778656 282.517883,143.782700 
	C283.350769,143.782761 284.185486,143.763962 285.016144,143.810730 
	C286.656738,143.903107 288.571594,143.642776 289.393494,145.487366 
	C290.126190,147.131699 288.712952,148.283524 287.847076,149.449478 
	C276.033112,165.357651 264.207855,181.257507 252.362488,197.142303 
	C240.018814,213.695358 227.650360,230.229919 215.087219,247.062881 
M247.500031,148.213959 
	C233.683640,148.215820 219.867233,148.210358 206.050842,148.222702 
	C199.368240,148.228668 199.353943,148.243820 199.352997,154.687881 
	C199.348190,187.813995 199.351364,220.940094 199.351730,254.066208 
	C199.351746,255.837738 199.351730,257.609253 199.351730,259.380798 
	C199.671829,259.489624 199.991913,259.598480 200.312012,259.707306 
	C227.895599,222.841614 255.479187,185.975922 283.733368,148.213989 
	C271.094635,148.213989 259.797333,148.213989 247.500031,148.213959 
M195.650818,209.500092 
	C195.650330,191.006958 195.493332,172.511581 195.757050,154.022217 
	C195.824783,149.273193 194.206223,148.116638 189.742691,148.148529 
	C165.752838,148.319946 141.761063,148.212784 117.770012,148.244965 
	C116.181900,148.247101 114.437279,147.731979 112.351646,149.625443 
	C139.676132,186.142075 167.015274,222.678314 194.354416,259.214539 
	C194.786377,258.958832 195.218338,258.703156 195.650299,258.447449 
	C195.650299,242.464996 195.650299,226.482544 195.650818,209.500092 
z"/>
<path fill="#000000" opacity="1.000000" stroke="none" 
	d="
M98.080460,155.973343 
	C93.823250,150.206146 89.742943,144.742493 85.855980,139.144592 
	C83.367584,135.560867 84.118866,133.947281 88.374557,133.833923 
	C94.855507,133.661270 101.344856,133.763748 107.830055,133.818298 
	C109.492371,133.832291 111.550369,133.922913 111.393867,136.242798 
	C111.264557,138.159576 109.358315,138.161667 107.874397,138.173935 
	C102.605629,138.217545 97.336288,138.190964 91.550858,138.190964 
	C92.676918,142.981171 95.919029,145.555191 97.885674,148.867203 
	C98.817039,150.435699 100.153641,151.816086 100.818626,153.477066 
	C101.662643,155.585297 101.263779,157.205063 98.080460,155.973343 
z"/>
<path fill="#000000" opacity="1.000000" stroke="none" 
	d="
M291.290405,133.791779 
	C296.899719,133.785767 302.045135,133.675491 307.184479,133.805344 
	C311.890259,133.924225 312.752228,135.392044 310.275787,139.167877 
	C306.820740,144.435745 303.155701,149.566635 299.541931,154.729111 
	C298.689148,155.947372 297.673950,157.452972 295.955994,156.214371 
	C294.204132,154.951355 295.474335,153.520432 296.263855,152.324295 
	C299.156433,147.942062 302.115570,143.603729 305.734863,138.231842 
	C300.049347,138.231842 295.484100,138.322037 290.925293,138.189819 
	C288.953918,138.132629 285.764099,139.073074 285.716064,136.057968 
	C285.667572,133.013580 288.854340,134.067337 291.290405,133.791779 
z"/>
<path fill="#000000" opacity="1.000000" stroke="none" 
	d="
M212.835266,266.024292 
	C214.828903,267.606750 213.764572,268.831543 212.818298,270.004333 
	C208.857666,274.912994 204.837463,279.773895 200.905991,284.705597 
	C198.774521,287.379333 196.937531,287.133759 194.949554,284.533478 
	C191.319565,279.785522 187.571381,275.128113 183.923203,270.393860 
	C182.941422,269.119781 181.455872,267.547241 183.407104,266.157684 
	C184.981567,265.036469 186.136566,266.560516 187.080505,267.732544 
	C190.577118,272.074219 194.050888,276.434235 197.683197,280.974854 
	C202.040359,277.527344 204.406906,273.255371 207.643570,269.772186 
	C209.053024,268.255402 209.865738,265.933777 212.835266,266.024292 
z"/>
<path fill="#000000" opacity="1.000000" stroke="none" 
	d="
M330.983185,134.483414 
	C328.791718,138.196259 325.928040,139.505875 322.477936,137.382401 
	C319.590057,135.604965 319.014679,132.510132 320.068268,129.452133 
	C321.130737,126.368530 323.720520,125.103119 326.834320,125.873070 
	C331.164337,126.943756 331.714874,130.286255 330.983185,134.483414 
z"/>
<path fill="#000000" opacity="1.000000" stroke="none" 
	d="
M73.495094,137.959808 
	C69.356216,138.907791 66.880959,137.316177 65.924248,133.776749 
	C65.141953,130.882568 65.642632,128.075958 68.577385,126.440765 
	C70.775337,125.216103 73.061562,125.275368 75.079468,126.905411 
	C77.636574,128.971024 77.753525,131.716034 76.850182,134.584167 
	C76.384361,136.063141 75.206169,137.036194 73.495094,137.959808 
z"/>
<path fill="#000000" opacity="1.000000" stroke="none" 
	d="
M203.277039,297.833252 
	C202.346863,302.162933 199.804108,304.022675 195.974380,303.087463 
	C192.283737,302.186188 191.298691,299.082855 191.803711,295.659546 
	C192.272522,292.481598 194.279526,290.581604 197.610840,290.742950 
	C201.744522,290.943085 203.279312,293.586426 203.277039,297.833252 
z"/>
</svg>