<svg version="1.1" id="Layer_1" xmlns="http://www.w3.org/2000/svg" xmlns:xlink="http://www.w3.org/1999/xlink" x="0px" y="0px"
	 width="100%" viewBox="0 0 400 400" enable-background="new 0 0 400 400" xml:space="preserve">
<path fill="#000000" opacity="1.000000" stroke="none" 
	d="
M238.874786,238.845001 
	C232.942657,246.265396 227.115723,253.320236 221.590469,260.603912 
	C219.062073,263.936951 217.079605,263.745270 214.426117,260.906128 
	C200.229904,245.716705 185.981888,230.575562 171.705826,215.461151 
	C169.272278,212.884735 169.734879,211.138031 172.875229,209.880493 
	C181.756638,206.323990 190.757523,204.285507 200.545273,205.209549 
	C219.378433,206.987549 238.240341,209.259094 257.217743,206.925964 
	C258.673096,206.747055 260.295441,206.401352 261.281158,207.985138 
	C262.330963,209.671814 261.016418,210.831421 260.132904,211.956131 
	C253.148056,220.848053 246.118820,229.705139 238.874786,238.845001 
z"/>
<path fill="#000000" opacity="1.000000" stroke="none" 
	d="
M265.480713,173.747467 
	C245.845810,172.796173 227.817062,167.052292 209.911728,160.732239 
	C195.122818,155.512161 180.226959,150.968658 164.182236,152.167694 
	C151.320312,153.128860 141.351608,158.588242 134.592377,169.704651 
	C133.541321,171.433258 132.572876,174.376556 129.869019,172.616043 
	C127.442833,171.036331 129.162491,168.731476 130.260925,166.907516 
	C138.491699,153.240067 151.193756,147.425369 166.559677,146.766479 
	C182.504059,146.082779 197.466705,150.773514 212.173935,156.157532 
	C234.372452,164.283920 256.950104,170.020523 280.849457,168.689957 
	C281.677338,168.643860 282.516083,168.683685 283.343231,168.757217 
	C284.760040,168.883148 286.051941,169.285294 286.035492,171.038742 
	C286.019440,172.748718 284.769592,173.125153 283.350250,173.368835 
	C277.564301,174.362228 271.759491,174.381226 265.480713,173.747467 
z"/>
<path fill="#000000" opacity="1.000000" stroke="none" 
	d="
M222.753601,182.101425 
	C238.180267,186.905823 253.404114,189.997223 269.259430,187.315155 
	C271.089905,187.005524 272.823944,187.152252 273.011749,189.360733 
	C273.193939,191.503876 271.383514,191.985062 269.676971,192.299927 
	C258.017670,194.451126 246.456070,193.552856 235.085358,190.643112 
	C223.015900,187.554565 211.051941,184.051010 199.057022,180.675018 
	C192.892456,178.939987 186.532944,178.619141 180.252090,178.751450 
	C170.203278,178.963150 163.070236,184.252151 158.497330,193.091354 
	C157.962921,194.124344 157.576767,195.233383 157.055832,196.274109 
	C156.314651,197.754837 155.614685,199.648636 153.464066,198.773041 
	C151.493729,197.970856 151.831711,196.232315 152.330383,194.496048 
	C155.633011,182.997101 167.452042,174.143982 179.530014,173.628738 
	C192.438721,173.078064 204.521942,176.643814 216.642715,180.239212 
	C218.555862,180.806702 220.465195,181.387054 222.753601,182.101425 
z"/>
<path fill="#000000" opacity="1.000000" stroke="none" 
	d="
M220.503662,290.866150 
	C216.222870,291.427124 213.557266,289.834564 212.805573,285.949097 
	C212.183578,282.734039 213.078201,279.906433 216.528519,278.692413 
	C219.772430,277.551025 222.461105,278.547791 224.317123,281.399780 
	C226.509705,284.768921 225.257812,288.030121 220.503662,290.866150 
z"/>
</svg>