<svg version="1.1" id="Layer_1" xmlns="http://www.w3.org/2000/svg" xmlns:xlink="http://www.w3.org/1999/xlink" x="0px" y="0px"
	 width="100%" viewBox="0 0 400 400" enable-background="new 0 0 400 400" xml:space="preserve">
<path fill="#000000" opacity="1.000000" stroke="none" 
	d="
M161.535187,120.588547 
	C153.267258,115.924255 144.276321,113.476891 136.926926,107.874031 
	C136.624542,107.643517 136.888306,106.670395 136.888306,106.008667 
	C139.771683,104.668007 141.858597,106.526947 143.979691,107.550339 
	C170.383209,120.289734 196.740860,133.124130 223.128235,145.897064 
	C247.266449,157.581223 271.441772,169.188919 295.549225,180.936035 
	C297.583496,181.927277 301.784210,182.528625 300.554169,185.273743 
	C298.974152,188.799942 295.922913,185.524719 293.834717,184.530228 
	C274.457397,175.301987 255.152328,165.922058 234.906250,156.141693 
	C250.136093,175.436142 253.039047,195.955750 244.605133,218.492767 
	C255.289749,223.809006 265.696136,228.987518 276.103119,234.164734 
	C292.802643,242.472366 309.509491,250.765244 326.190674,259.109558 
	C327.715759,259.872437 330.370697,260.476318 329.342010,262.762115 
	C328.063782,265.602356 325.856445,263.447296 324.277405,262.664948 
	C298.899170,250.091492 273.556732,237.445847 248.203018,224.822891 
	C246.582993,224.016327 244.937241,223.261383 242.912735,222.296143 
	C229.506577,244.175659 210.309860,254.866623 183.850754,252.966797 
	C190.638519,256.246735 196.851379,259.258087 203.072189,262.252930 
	C216.128876,268.538696 229.191589,274.811920 242.245377,281.103699 
	C243.293716,281.609009 244.316833,282.177826 245.307037,282.789398 
	C246.251801,283.372894 246.732468,284.292542 246.231857,285.332703 
	C245.714706,286.407227 244.577484,286.435272 243.614044,286.171906 
	C242.502106,285.867889 241.441269,285.342896 240.394974,284.837799 
	C189.096710,260.074219 137.802414,235.302444 86.507790,210.531342 
	C86.357750,210.458878 86.193542,210.403931 86.062737,210.305298 
	C84.597496,209.200043 81.471519,208.848358 82.570427,206.371277 
	C83.724190,203.770523 86.058907,205.664093 87.733635,206.469528 
	C97.641525,211.234650 107.496330,216.110062 117.399780,220.884521 
	C128.339142,226.158386 139.311646,231.363525 150.209213,236.569687 
	C151.286118,235.410034 150.399292,234.791443 149.949844,234.229431 
	C143.196594,225.784531 140.274292,216.053787 140.796494,205.388046 
	C140.979477,201.650543 139.400223,200.087433 136.356064,198.684906 
	C112.002243,187.464401 87.681610,176.170990 63.416416,164.760406 
	C61.156219,163.697540 56.325066,163.242447 58.005604,159.867020 
	C59.556931,156.751144 63.021973,160.115463 65.352646,161.179520 
	C82.018936,168.788528 98.600006,176.584030 115.220451,184.293777 
	C117.154396,185.190887 119.163582,185.925797 121.620102,186.933777 
	C127.223022,171.912582 134.646286,158.475311 147.328110,148.736694 
	C159.964996,139.032593 174.293243,134.552658 190.499283,134.812027 
	C185.746414,132.466263 180.997330,130.112747 176.239594,127.776917 
	C171.453964,125.427399 166.659683,123.095459 161.535187,120.588547 
M144.787491,156.289246 
	C136.915344,164.627136 130.700027,173.990097 127.032791,184.936096 
	C126.380150,186.884094 125.559662,189.007385 127.981682,190.184601 
	C132.407455,192.335709 136.767685,194.717926 141.580521,195.993683 
	C143.459320,191.657822 144.944885,187.595291 146.916565,183.784256 
	C158.075638,162.215012 190.730621,147.744049 214.569275,170.221405 
	C225.189957,180.235596 227.440887,196.540604 219.659348,208.576584 
	C211.796722,220.738022 194.053726,226.565079 181.361526,221.154144 
	C172.229095,217.260818 166.124481,208.075531 167.104218,199.701950 
	C168.284470,189.614670 174.154846,183.739365 184.592987,182.198532 
	C195.662491,180.564484 204.561188,190.634720 201.130035,200.979065 
	C199.828323,204.903549 197.174301,207.556671 192.987411,208.211746 
	C189.080475,208.823013 186.156693,206.891724 184.097168,203.814362 
	C182.900650,202.026505 180.313965,199.564957 182.681335,197.771912 
	C185.416336,195.700424 185.863129,199.511932 187.029205,200.950470 
	C188.615814,202.907822 190.332474,204.292572 192.958618,203.802292 
	C195.849121,203.262665 197.019516,201.054794 197.537247,198.487045 
	C198.708466,192.678223 195.020477,187.496735 189.077072,186.444901 
	C183.165268,185.398666 176.307266,188.311676 173.416229,193.097015 
	C170.183319,198.448242 170.352448,205.625854 174.329575,210.440247 
	C180.171677,217.512238 187.559570,220.558395 196.904236,218.771698 
	C209.426605,216.377411 219.063232,206.656540 219.856628,195.071243 
	C220.840256,180.708420 211.913879,168.461014 196.471405,164.428619 
	C180.094208,160.152130 166.306274,165.966385 155.780930,178.341476 
	C144.476868,191.632141 140.851639,207.500793 148.493698,223.556091 
	C157.598984,242.685501 174.674103,249.924545 195.112991,248.721313 
	C216.762695,247.446823 232.121582,235.873734 240.552612,216.294724 
	C248.977417,196.730240 246.847885,177.498657 233.033981,160.935165 
	C213.130997,137.070572 174.099213,129.412949 144.787491,156.289246 
z"/>
</svg>