<svg version="1.1" id="Layer_1" xmlns="http://www.w3.org/2000/svg" xmlns:xlink="http://www.w3.org/1999/xlink" x="0px" y="0px"
	 width="100%" viewBox="0 0 400 400" enable-background="new 0 0 400 400" xml:space="preserve">
<path fill="#000000" opacity="1.000000" stroke="none" 
	d="
M184.146347,296.983887 
	C169.031601,295.974213 154.375641,296.564423 139.731201,296.351990 
	C132.413132,296.245819 130.959686,293.868683 134.715332,287.487213 
	C149.994690,261.525024 165.387360,235.629501 180.724045,209.701004 
	C195.297043,185.063660 209.859787,160.420227 224.409927,135.769363 
	C227.820770,129.990707 229.000595,129.890366 232.229874,135.514175 
	C261.573212,186.615860 290.899384,237.727448 320.198029,288.854767 
	C323.907471,295.327850 322.619843,297.402588 315.011139,297.382019 
	C271.550079,297.264587 228.089096,297.120087 184.146347,296.983887 
M268.121765,266.779266 
	C261.759521,270.901001 254.846100,271.780670 247.536560,270.245239 
	C240.014984,268.665283 234.392502,264.291656 229.811661,257.987732 
	C229.349930,267.821503 229.613937,277.448303 229.238617,287.050110 
	C229.050690,291.858093 230.879227,292.941010 235.265610,292.959686 
	C260.914062,293.068848 286.561432,293.419434 312.209564,293.639130 
	C313.794464,293.652710 315.542328,294.192047 317.205933,292.706482 
	C316.081299,288.751556 313.026398,285.651825 311.674683,281.810486 
	C307.342865,269.500305 298.996002,264.494904 286.146515,267.179810 
	C285.667358,267.279938 285.136322,267.268768 284.651764,267.183167 
	C282.226562,266.754913 277.927246,268.552643 277.872162,265.236938 
	C277.804535,261.166351 282.244720,263.180542 284.718323,262.914673 
	C289.533173,262.397186 294.497253,263.485382 299.398651,262.156464 
	C297.592773,256.984314 252.361038,178.252106 249.324387,174.924759 
	C244.369980,181.400452 239.993637,188.501007 231.767365,191.402588 
	C230.476395,191.857941 230.289658,193.121429 230.288406,194.323044 
	C230.276657,205.586243 230.281448,216.849442 230.281448,228.487335 
	C242.959946,215.239792 266.987732,210.596405 270.554413,220.417648 
	C268.879639,221.952469 267.133575,221.025772 265.397217,220.567429 
	C259.986481,219.139206 254.616486,218.992935 249.123642,220.416702 
	C236.438812,223.704681 229.128571,235.320099 231.452576,248.835648 
	C233.433838,260.357941 244.479248,268.013428 257.141846,266.640656 
	C264.718170,265.819305 270.283691,260.913055 271.785187,253.731857 
	C273.381317,246.098175 270.290924,237.658356 264.686127,234.344482 
	C258.966034,230.962402 248.373474,232.032516 243.457458,236.462891 
	C242.161240,237.631058 241.428726,238.963318 241.290573,240.773315 
	C241.001724,244.557312 242.535660,247.319168 245.830933,248.934265 
	C249.575302,250.769455 252.573868,249.162323 255.146454,246.356857 
	C256.143494,245.269547 257.228577,243.588211 258.812805,244.799622 
	C260.600739,246.166840 259.327454,247.862579 258.324860,249.171143 
	C255.245178,253.190613 251.015244,254.206619 246.275314,253.302719 
	C241.549606,252.401550 238.724594,249.396957 237.549698,244.760330 
	C236.442474,240.390915 237.050537,236.375214 240.555252,233.362915 
	C249.058380,226.054565 264.522858,226.676758 271.153320,234.443665 
	C278.976685,243.607895 277.849243,258.349304 268.121765,266.779266 
M194.725922,194.182999 
	C192.814178,197.790070 190.162582,201.022903 188.778381,205.072128 
	C190.683609,206.090988 192.366745,205.792038 193.983261,205.802933 
	C198.981415,205.836670 203.980698,205.764771 208.977966,205.839722 
	C210.722046,205.865891 213.341431,205.476868 213.399536,207.865173 
	C213.469116,210.724274 210.661819,210.156097 208.800690,210.183563 
	C203.137100,210.267105 197.449890,210.513504 191.813217,210.113647 
	C187.044998,209.775391 184.312332,211.459457 181.884094,215.632874 
	C167.648849,240.099136 153.110229,264.388824 138.709488,288.759033 
	C138.170959,289.670380 137.082977,290.565582 137.973282,292.064026 
	C138.483231,292.184326 139.114761,292.461365 139.747528,292.464233 
	C167.069183,292.587097 194.390976,292.675293 221.712616,292.801453 
	C224.795547,292.815704 225.697845,291.223480 225.671631,288.392456 
	C225.594467,280.062592 225.684341,271.731201 225.626175,263.401001 
	C225.619370,262.426880 226.313950,261.058044 224.577637,260.404053 
	C220.769974,264.657867 216.418030,268.097290 210.746887,269.728394 
	C197.106735,273.651581 183.712708,267.505280 180.748169,255.803421 
	C178.470322,246.812180 181.865356,236.105530 188.449097,231.517654 
	C195.037170,226.926788 207.103882,227.313553 214.511322,232.352997 
	C220.068893,236.133942 221.089432,244.080444 216.719421,249.546829 
	C212.748337,254.514206 204.348969,255.193314 199.772659,250.741943 
	C198.235306,249.246521 195.326035,247.345764 197.536362,245.050003 
	C199.634689,242.870560 200.602692,246.330750 202.071869,247.294708 
	C202.904358,247.840881 203.626801,248.623734 204.525284,248.988373 
	C208.248566,250.499435 211.492737,249.572403 213.795624,246.379593 
	C216.234146,242.998749 216.241348,239.538147 212.981659,236.524567 
	C208.390610,232.280106 198.364563,230.821701 192.704315,233.906616 
	C185.424896,237.873993 183.896576,244.737579 184.323456,252.294891 
	C184.679672,258.601471 189.167236,263.739105 195.872360,265.836548 
	C206.197235,269.066315 218.308319,264.188843 222.809235,254.988342 
	C228.032196,244.311905 225.324661,231.109146 216.383469,224.796936 
	C209.066833,219.631622 200.960587,218.142563 192.159088,220.186279 
	C190.208725,220.639145 187.769653,222.694519 185.737106,219.036240 
	C192.223816,214.110397 199.598862,215.274796 206.618149,216.183578 
	C214.200684,217.165253 220.296738,221.477493 225.802246,228.467163 
	C225.802246,217.988953 225.614334,208.991943 225.876511,200.008072 
	C226.021408,195.042999 225.871399,190.930496 219.847992,189.388168 
	C217.803726,188.864716 216.027191,186.771942 214.440582,185.099976 
	C211.615051,182.122437 209.027359,178.919189 205.881073,175.279144 
	C202.145645,181.621567 198.628815,187.592819 194.725922,194.182999 
M226.580994,154.239136 
	C226.580994,150.234390 226.580994,146.229645 226.580994,142.224884 
	C220.381622,150.799973 215.242920,159.489349 210.113922,168.184448 
	C209.516144,169.197861 209.100311,170.266602 209.294357,171.493378 
	C210.019379,176.076813 219.950714,185.643814 225.524719,186.808914 
	C226.658264,176.245697 225.218857,165.634216 226.580994,154.239136 
M230.321701,151.594406 
	C230.321701,163.314667 230.321701,175.034927 230.321701,186.973557 
	C234.495300,186.324203 236.643082,183.928680 238.801178,181.686462 
	C247.686218,172.455063 247.901749,170.820877 241.666687,159.934158 
	C238.275864,154.013626 234.747604,148.171814 231.281326,142.294495 
	C230.962692,142.431900 230.644058,142.569321 230.325424,142.706726 
	C230.325424,145.350754 230.325424,147.994797 230.321701,151.594406 
z"/>
<path fill="#000000" opacity="1.000000" stroke="none" 
	d="
M118.865158,298.840454 
	C117.101318,305.455414 114.398872,308.090637 109.249405,308.482300 
	C104.616119,308.834686 101.232033,306.988617 99.052391,302.810883 
	C96.934860,298.752228 97.625771,294.966827 100.279800,291.606415 
	C102.703674,288.537445 106.158096,287.098450 110.060257,287.890472 
	C114.235085,288.737854 117.358261,291.070801 118.378677,295.512817 
	C118.601601,296.483307 118.739616,297.473267 118.865158,298.840454 
z"/>
<path fill="#000000" opacity="1.000000" stroke="none" 
	d="
M239.552170,108.131226 
	C236.260941,114.415215 231.818146,116.621384 226.530106,114.905937 
	C221.835861,113.383118 218.705963,108.523514 219.296692,103.675095 
	C220.020645,97.733437 225.300354,93.860825 231.490433,94.731133 
	C237.342422,95.553925 240.806244,101.054604 239.552170,108.131226 
z"/>
<path fill="#000000" opacity="1.000000" stroke="none" 
	d="
M350.032776,309.506958 
	C343.147644,310.963470 338.553650,308.668030 336.484100,303.060669 
	C334.884155,298.725647 336.814941,293.412231 340.870056,290.990692 
	C345.250519,288.374878 351.277649,289.336456 354.425140,293.153351 
	C358.856995,298.527771 357.208832,305.188202 350.032776,309.506958 
z"/>
</svg>