<svg version="1.1" id="Layer_1" xmlns="http://www.w3.org/2000/svg" xmlns:xlink="http://www.w3.org/1999/xlink" x="0px" y="0px"
	 width="100%" viewBox="0 0 400 400" enable-background="new 0 0 400 400" xml:space="preserve">
<path fill="#000000" opacity="1.000000" stroke="none" 
	d="
M176.412903,313.111877 
	C148.855072,308.785248 128.346741,295.033844 115.441673,270.609100 
	C90.607666,223.607147 120.196541,164.871552 172.794540,156.619919 
	C176.022461,156.113495 179.265121,155.701035 182.948120,155.181808 
	C178.812836,150.078186 173.801437,146.496872 169.341644,142.364944 
	C161.280457,134.896347 153.011292,127.652451 144.848755,120.292778 
	C143.646210,119.208519 141.755936,118.228645 142.283752,116.350494 
	C142.944946,113.997803 145.271515,114.696350 146.987198,114.676163 
	C174.289047,114.355011 201.591431,114.081863 228.893723,113.798820 
	C229.559860,113.791916 230.227615,113.768333 230.892044,113.802589 
	C232.528595,113.886971 234.482391,113.539604 235.324493,115.359283 
	C236.231949,117.320229 234.442505,118.408928 233.290283,119.483879 
	C227.568695,124.821762 221.756882,130.062759 216.009979,135.373734 
	C209.052200,141.803726 202.127640,148.269653 195.157745,154.748795 
	C196.184769,156.711288 197.998856,156.444412 199.543701,156.735855 
	C233.969986,163.230377 259.694641,189.337769 263.972961,224.161209 
	C269.674591,270.569427 237.584442,305.896698 198.777878,312.434021 
	C191.469559,313.665161 184.181732,313.278290 176.412903,313.111877 
M115.263206,260.306458 
	C118.837402,269.958527 124.249756,278.431000 131.233841,285.999146 
	C133.911942,288.901245 135.722839,288.888306 138.522141,286.094849 
	C153.722931,270.925720 169.052551,255.884720 184.441086,240.905701 
	C186.778946,238.630051 187.753036,236.271362 187.718445,233.011215 
	C187.492432,211.708954 187.850861,190.404480 187.139206,169.101654 
	C186.799973,158.946838 187.089493,158.937164 177.076797,160.149277 
	C128.982513,165.971466 98.936462,214.118103 115.263206,260.306458 
M259.301758,248.814011 
	C259.749512,245.521683 260.515106,242.237076 260.595306,238.935822 
	C261.318420,209.178314 249.228668,186.088638 224.067993,170.116547 
	C215.548767,164.708511 206.038849,161.661499 196.009048,160.293777 
	C192.561752,159.823654 191.078491,161.040192 191.272339,164.630829 
	C191.478592,168.451096 191.597961,172.315857 191.252304,176.115448 
	C190.870682,180.310242 192.574341,181.915237 196.584091,182.743896 
	C227.884995,189.212631 246.126587,221.510300 235.799316,251.781296 
	C233.529984,258.433136 229.846451,264.284485 226.980377,268.042053 
	C232.091583,273.831268 236.659790,279.005432 241.206726,284.155518 
	C248.610336,277.738831 256.172363,263.100098 259.301758,248.814011 
M192.181061,291.497803 
	C192.207672,295.488037 192.212677,299.478577 192.266205,303.468475 
	C192.336823,308.732056 193.234406,309.506683 198.564590,308.445679 
	C206.421448,306.881744 214.049377,304.527679 221.052292,300.575958 
	C227.085083,297.171631 232.946274,293.462311 237.968643,287.695557 
	C222.909317,273.254578 208.119415,259.071991 192.182632,243.789627 
	C192.182632,260.435791 192.182632,275.467285 192.181061,291.497803 
M202.615646,202.848495 
	C200.793121,202.036240 199.015121,201.097763 197.139511,200.435913 
	C191.942764,198.602081 191.374054,199.002853 191.361237,204.444763 
	C191.338440,214.109894 191.362549,223.775208 191.392548,233.440353 
	C191.397125,234.914383 191.045425,236.547684 192.243240,237.727844 
	C198.956436,244.342178 205.709534,250.916000 212.435349,257.490326 
	C227.202209,242.536957 223.962830,214.626724 202.615646,202.848495 
M184.138931,287.348145 
	C174.325607,287.487488 165.557861,284.168274 157.244522,279.282745 
	C155.620621,278.328430 154.061310,276.636047 151.935272,278.625671 
	C147.340729,282.925446 142.663208,287.136475 138.091446,291.318146 
	C147.283997,301.708679 173.733582,311.536041 185.102905,309.656982 
	C187.653229,309.235474 187.848526,307.680939 187.841904,305.746155 
	C187.825378,300.916321 187.793930,296.086548 187.776245,291.256744 
	C187.769089,289.302917 187.566681,287.503113 184.138931,287.348145 
M216.088623,208.452667 
	C227.327133,222.745163 228.744507,241.046799 219.733612,255.517365 
	C215.816147,261.808411 215.818085,261.816071 223.233109,266.612183 
	C223.501038,266.054688 223.731171,265.181793 224.252335,264.548309 
	C246.688965,237.275192 230.717941,193.112320 196.035568,186.636902 
	C194.173203,186.289169 191.713043,185.460876 191.455200,188.629349 
	C191.219208,191.529785 190.527802,194.687576 194.897339,195.655014 
	C203.097107,197.470474 209.976471,201.689835 216.088623,208.452667 
M175.668625,255.168854 
	C169.501114,261.319397 163.333618,267.469910 157.144104,273.642426 
	C162.573196,278.400482 170.113922,281.668945 177.219620,282.701691 
	C189.613708,284.502991 187.655289,284.510223 187.705261,273.692261 
	C187.750137,263.974396 187.714706,254.256195 187.714706,244.538147 
	C187.267303,244.325363 186.819901,244.112595 186.372498,243.899811 
	C182.971481,247.489777 179.570465,251.079727 175.668625,255.168854 
M224.488724,118.236404 
	C215.184647,118.262932 205.876480,118.459656 196.578354,118.237419 
	C192.503815,118.140022 190.879745,119.414154 191.079483,123.590469 
	C191.357010,129.393372 191.109329,135.219452 191.264481,141.030853 
	C191.357666,144.521149 190.720825,148.103027 191.934204,152.060196 
	C204.114990,140.799774 215.851730,129.949844 228.213470,118.522141 
	C226.470825,118.355400 225.835083,118.294579 224.488724,118.236404 
z"/>
<path fill="#000000" opacity="1.000000" stroke="none" 
	d="
M204.768311,281.738312 
	C200.552475,283.768982 197.489471,282.637329 196.043579,278.766846 
	C194.890930,275.681427 195.957993,272.827118 199.273697,271.451172 
	C202.608704,270.067261 205.162476,271.421936 206.670731,274.404633 
	C207.993225,277.019958 207.405777,279.540436 204.768311,281.738312 
z"/>
</svg>