<svg width="50" height="57" viewBox="0 0 50 57" fill="none" xmlns="http://www.w3.org/2000/svg">
<path d="M25.0001 0.127441C18.2104 0.127441 17.359 0.159894 14.6925 0.297091C12.0316 0.434065 10.2142 0.910562 8.62395 1.60751C6.97998 2.32797 5.58579 3.29193 4.19597 4.85918C2.80614 6.42642 1.95131 7.99859 1.31242 9.85243C0.694366 11.6456 0.271812 13.695 0.150345 16.6956C0.0286797 19.7025 0 20.6626 0 28.319C0 35.9753 0.0286797 36.9353 0.150345 39.9422C0.271812 42.9429 0.694366 44.9922 1.31242 46.7854C1.95131 48.6393 2.80614 50.2114 4.19597 51.7788C5.58579 53.346 6.97998 54.31 8.62395 55.0305C10.2142 55.7273 12.0316 56.2039 14.6925 56.3408C17.359 56.478 18.2104 56.5104 25.0001 56.5104C31.7896 56.5104 32.641 56.478 35.3075 56.3408C37.9684 56.2039 39.7858 55.7273 41.3759 55.0305C43.0199 54.31 44.4141 53.346 45.804 51.7788C47.1939 50.2114 48.0487 48.6393 48.6876 46.7854C49.3055 44.9922 49.7282 42.9429 49.8496 39.9422C49.9712 36.9353 50 35.9753 50 28.319C50 20.6626 49.9712 19.7025 49.8496 16.6956C49.7282 13.695 49.3055 11.6456 48.6876 9.85243C48.0487 7.99859 47.1939 6.42642 45.804 4.85918C44.4141 3.29193 43.0199 2.32797 41.3759 1.60751C39.7858 0.910562 37.9684 0.434065 35.3075 0.297091C32.641 0.159894 31.7896 0.127441 25.0001 0.127441ZM25.0001 5.20709C31.6753 5.20709 32.466 5.23574 35.1021 5.37137C37.5396 5.49682 38.8634 5.95608 39.7443 6.34205C40.9112 6.85346 41.744 7.46447 42.6188 8.45092C43.4937 9.43737 44.0354 10.3766 44.4889 11.6924C44.8313 12.6858 45.2386 14.1785 45.3497 16.9271C45.47 19.8998 45.4955 20.7915 45.4955 28.319C45.4955 35.8464 45.47 36.738 45.3497 39.7107C45.2386 42.4594 44.8313 43.9521 44.4889 44.9455C44.0354 46.2614 43.4937 47.2005 42.6188 48.1869C41.744 49.1735 40.9112 49.7844 39.7443 50.2958C38.8634 50.6819 37.5396 51.1412 35.1021 51.2665C32.4664 51.4021 31.6758 51.4309 25.0001 51.4309C18.3242 51.4309 17.5337 51.4021 14.8979 51.2665C12.4604 51.1412 11.1366 50.6819 10.2557 50.2958C9.08878 49.7844 8.25598 49.1735 7.3811 48.1869C6.50632 47.2005 5.96448 46.2614 5.51106 44.9455C5.16869 43.9521 4.76142 42.4594 4.65018 39.7107C4.5299 36.738 4.5045 35.8464 4.5045 28.319C4.5045 20.7915 4.5299 19.8998 4.65018 16.9271C4.76142 14.1785 5.16869 12.6858 5.51106 11.6924C5.96448 10.3766 6.50632 9.43737 7.3811 8.45092C8.25598 7.46447 9.08878 6.85346 10.2557 6.34205C11.1366 5.95608 12.4604 5.49682 14.8979 5.37137C17.534 5.23574 18.3247 5.20709 25.0001 5.20709Z" fill="#55A6D9"/>
<path d="M25 37.7162C20.3975 37.7162 16.6666 33.5089 16.6666 28.319C16.6666 23.1291 20.3975 18.9218 25 18.9218C29.6023 18.9218 33.3333 23.1291 33.3333 28.319C33.3333 33.5089 29.6023 37.7162 25 37.7162ZM25 13.8423C17.9098 13.8423 12.1621 20.3237 12.1621 28.319C12.1621 36.3143 17.9098 42.7957 25 42.7957C32.0901 42.7957 37.8378 36.3143 37.8378 28.319C37.8378 20.3237 32.0901 13.8423 25 13.8423Z" fill="#55A6D9"/>
<path d="M41.345 13.2703C41.345 15.1386 40.0018 16.6532 38.3449 16.6532C36.6882 16.6532 35.345 15.1386 35.345 13.2703C35.345 11.4019 36.6882 9.88733 38.3449 9.88733C40.0018 9.88733 41.345 11.4019 41.345 13.2703Z" fill="#55A6D9"/>
</svg>
