<svg width="50" height="35" viewBox="0 0 50 35" fill="none" xmlns="http://www.w3.org/2000/svg">
<path d="M2.28363 2.80554C3.60571 3.59163 21.9707 14.8816 22.6558 15.2882C23.3409 15.6948 24.038 15.8845 25.1197 15.8845C26.2014 15.8845 26.8985 15.6948 27.5836 15.2882C28.2687 14.8816 46.6337 3.59163 47.9558 2.80554C48.4486 2.52092 49.2779 2.00589 49.4581 1.4231C49.7706 0.393046 49.4341 0 48.1 0H25.1197H2.1394C0.80529 0 0.468758 0.4066 0.781252 1.4231C0.961537 2.01945 1.79085 2.52092 2.28363 2.80554Z" fill="#55A6D9"/>
<path d="M49.0014 3.41549C48.0158 3.98473 39.1699 11.0867 33.3166 15.356L43.1962 27.8928C43.4366 28.1639 43.5448 28.4891 43.4126 28.6518C43.2683 28.8009 42.9559 28.7195 42.7035 28.462L30.8527 17.1857C29.0619 18.4868 27.7999 19.3813 27.5836 19.5168C26.6581 20.0454 26.0091 20.1132 25.1197 20.1132C24.2303 20.1132 23.5812 20.0454 22.6558 19.5168C22.4274 19.3813 21.1775 18.4868 19.3866 17.1857L7.5359 28.462C7.29552 28.7331 6.97101 28.8144 6.82678 28.6518C6.68256 28.5027 6.79073 28.1639 7.03111 27.8928L16.8987 15.356C11.0454 11.0867 2.10332 3.98473 1.11777 3.41549C0.0600948 2.80559 0 3.52392 0 4.0796C0 4.63529 0 31.8639 0 31.8639C0 33.1244 1.6466 34.6966 2.82446 34.6966H25.1197H47.4149C48.5928 34.6966 49.999 33.1108 49.999 31.8639C49.999 31.8639 49.999 4.62174 49.999 4.0796C49.999 3.51036 50.0711 2.80559 49.0014 3.41549Z" fill="#55A6D9"/>
</svg>
