<svg width="283" height="317" viewBox="0 0 283 317" fill="none" xmlns="http://www.w3.org/2000/svg">
<g filter="url(#filter0_d_69_20)">
<path d="M236.354 211.878C237.719 200.275 238.586 189.65 240.425 179.195C241.835 171.174 239.047 168.232 231.228 168.413C220.974 168.65 210.707 168.545 200.451 168.345C197.126 168.281 192.417 168.888 192.798 163.546C193.106 159.227 197.303 159.84 200.285 159.794C210.937 159.629 221.597 159.484 232.245 159.73C238.64 159.878 241.678 157.431 241.865 150.867C242.484 129.112 242.511 107.382 235.995 86.3494C224.612 49.61 195.566 33.5148 156.457 41.2768C117.421 49.0243 92.7615 74.3677 75.1615 107.806C54.6536 146.769 45.6488 189.096 41.4671 232.57C40.2223 245.51 39.8087 258.531 39.0059 271.514C38.7837 275.109 38.7788 279.106 33.9296 279.462C29.1147 279.816 27.962 276.236 28.0009 272.415C28.7577 198.097 39.911 126.474 89.2887 67.1378C114.613 36.7066 148.732 23.8001 188.646 29.1954C216.846 33.0075 235.062 49.4953 244.722 75.6843C255.759 105.603 256.584 136.704 253.33 167.929C250.555 194.558 246.245 221.024 243.352 247.643C242.24 257.877 245.105 267.96 248.773 277.64C250.305 281.683 252.607 286.561 246.674 288.587C241.239 290.443 238.999 285.67 237.367 281.634C228.175 258.901 231.771 235.911 236.354 211.878Z" fill="white" fill-opacity="0.01" shape-rendering="geometricPrecision"/>
</g>
<defs>
<filter id="filter0_d_69_20" x="0" y="0" width="283" height="317" filterUnits="userSpaceOnUse" color-interpolation-filters="sRGB">
<feFlood flood-opacity="0" result="BackgroundImageFix"/>
<feColorMatrix in="SourceAlpha" type="matrix" values="0 0 0 0 0 0 0 0 0 0 0 0 0 0 0 0 0 0 128 0" result="hardAlpha"/>
<feOffset/>
<feGaussianBlur stdDeviation="8"/>
<feComposite in2="hardAlpha" operator="out"/>
<feColorMatrix type="matrix" values="0 0 0 0 0.357415 0 0 0 0 0.876877 0 0 0 0 0.980769 0 0 0 1 0"/>
<feBlend mode="normal" in2="BackgroundImageFix" result="effect1_dropShadow_69_20"/>
<feBlend mode="normal" in="SourceGraphic" in2="effect1_dropShadow_69_20" result="shape"/>
</filter>
</defs>
</svg>
