<svg width="227" height="261" viewBox="0 0 227 261" fill="none" xmlns="http://www.w3.org/2000/svg">
<path d="M208.354 183.878C209.719 172.275 210.586 161.65 212.425 151.195C213.835 143.174 211.047 140.232 203.228 140.413C192.974 140.65 182.707 140.545 172.451 140.345C169.126 140.281 164.417 140.888 164.798 135.546C165.106 131.227 169.303 131.84 172.285 131.794C182.937 131.629 193.597 131.484 204.245 131.73C210.64 131.878 213.678 129.431 213.865 122.867C214.484 101.112 214.511 79.3824 207.995 58.3494C196.612 21.61 167.566 5.51475 128.457 13.2768C89.4206 21.0243 64.7615 46.3677 47.1615 79.8061C26.6536 118.769 17.6488 161.096 13.4671 204.57C12.2223 217.51 11.8087 230.531 11.0059 243.514C10.7837 247.109 10.7788 251.106 5.9296 251.462C1.11469 251.816 -0.0379582 248.236 0.00094199 244.415C0.757664 170.097 11.911 98.4738 61.2887 39.1378C86.6126 8.70655 120.732 -4.19994 160.646 1.1954C188.846 5.00745 207.062 21.4953 216.722 47.6843C227.759 77.6027 228.584 108.704 225.33 139.929C222.555 166.558 218.245 193.024 215.352 219.643C214.24 229.877 217.105 239.96 220.773 249.64C222.305 253.683 224.607 258.561 218.674 260.587C213.239 262.443 210.999 257.67 209.367 253.634C200.175 230.901 203.771 207.911 208.354 183.878Z" fill="white" fill-opacity="1"/>
</svg>
