<svg width="444" height="412" viewBox="0 0 444 412" fill="none" xmlns="http://www.w3.org/2000/svg">
<g filter="url(#filter0_d_35_103)">
<path d="M115.867 229.9C128.823 207.167 142.141 184.83 154.571 161.991C166.892 139.352 179.767 117.026 192.298 94.5068C195.51 88.7357 198.871 83.0427 201.819 77.1107C203.698 73.329 206.242 69.8504 208.721 66.4044C210.249 64.2817 212.922 64.1533 215.28 63.6242C215.792 63.5094 216.34 63.5602 216.872 63.5371C221.974 63.3152 225.902 65.241 227.745 70.1516C231.113 79.127 236.535 86.9775 241.236 95.2122C256.462 121.884 271.698 148.55 286.723 175.338C302.416 203.318 318.428 231.119 334.323 258.985C344.718 277.209 355.158 295.407 365.567 313.622C370.619 322.462 365.278 331.673 355.07 331.753C262.524 332.479 169.976 331.808 77.4292 332.079C70.2167 332.1 64.8708 325.22 66.5716 318.169C66.9806 316.473 67.5496 314.808 68.4232 313.276C75.4242 300.996 82.4839 288.749 89.4137 276.43C94.4819 267.42 99.297 258.267 104.383 249.267C108.047 242.783 111.971 236.446 115.867 229.9ZM188.793 316.277C189.824 316.764 190.837 317.294 191.889 317.73C196.332 319.57 200.829 321.157 205.767 320.823C209.557 320.567 213.35 320.263 217.146 320.185C227.172 319.979 237.204 320.978 247.231 320.059C249.194 319.879 251.272 319.453 253.127 319.879C258.158 321.033 263.261 320.73 268.313 320.921C278.943 321.324 289.582 321.392 300.233 321.176C316.655 320.844 333.088 321.061 349.517 321.038C350.733 321.036 351.961 321.069 353.163 320.916C355.477 320.622 356.259 318.969 355.061 317.003C354.27 315.706 353.358 314.481 352.592 313.17C342.125 295.254 332.564 276.824 321.867 259.039C320.769 257.213 319.842 255.2 318.227 253.726C317.25 254.382 317.032 255.209 316.684 255.956C311.301 267.523 304.798 278.274 295.92 287.635C285.861 298.241 274.156 305.936 260.009 309.5C247.963 312.535 235.728 314.205 223.193 313.055C208.185 311.679 194.43 306.751 181.743 298.868C170.357 291.794 160.958 282.538 153.701 271.224C149.248 264.281 145.8 256.905 143.79 248.816C141.519 239.679 142.131 230.575 143.129 221.408C145.214 202.281 153.824 186.869 169.583 175.753C184.117 165.502 199.895 161.678 217.263 167.681C229.119 171.778 238.475 178.883 243.909 190.413C247.267 197.539 248.458 205.239 248.362 213.059C248.251 222.02 245.507 230.086 239.199 236.714C237.781 238.205 236.113 239.486 235.208 241.46C243.835 238.82 250.78 234.111 254.337 225.465C258.186 216.11 258.233 206.331 255.898 196.762C252.399 182.428 244.921 170.66 231.574 163.296C211.353 152.139 191.071 151.681 170.758 162.947C167.081 164.987 163.795 167.651 161.652 171.382C156.62 180.143 151.628 188.927 146.701 197.747C142.437 205.377 138.155 212.998 133.318 220.28C132.076 222.15 131.372 223.973 131.394 226.195C131.444 231.212 131.682 236.23 131.701 241.241C131.752 254.78 135.911 267.122 143.409 278.067C154.873 294.801 169.884 307.674 188.793 316.277ZM186.333 210.323C187.962 203.231 192.11 197.512 197.041 191.824C195.369 191.878 194.489 192.332 193.628 192.803C179.346 200.613 172.233 212.703 171.966 228.937C171.769 240.928 176.217 251.238 183.603 260.323C190.888 269.284 200.564 275.019 211.288 278.854C220.301 282.076 229.602 283.783 239.285 282.243C248.087 280.843 256.512 278.155 264.212 273.838C271.492 269.756 277.234 263.776 282.05 256.83C290.054 245.289 295.904 232.95 297.861 218.918C298.057 217.508 297.827 216.414 297.069 215.293C294.387 211.324 291.709 207.359 289.667 202.995C288.296 200.066 286.72 197.234 285.084 194.066C284.989 194.618 284.891 194.827 284.931 195.005C286.776 203.307 287.411 211.659 286.156 220.119C284.344 232.328 279.569 243.218 271.188 252.281C256.154 268.538 229.788 275.16 207.678 264.642C198.083 260.077 190.414 253.665 185.288 244.326C183.54 241.141 182.904 237.614 182.388 234.071C182.309 233.526 182.116 232.829 183.311 232.338C185.134 236.297 188.455 239.019 191.673 241.897C199.227 248.655 207.369 254.307 217.15 257.439C226.046 260.287 234.825 259.681 243.649 257.291C246.355 256.558 249.279 256.342 251.778 255.187C264.91 249.116 272.159 238.292 275.462 224.608C278.343 212.671 277.677 200.81 274.053 189.075C268.208 170.144 257.174 155.048 240.169 144.866C226.432 136.641 211.217 134.336 195.355 136.017C190.351 136.547 185.419 137.323 180.67 139.068C178.694 139.795 177.242 140.82 176.861 143.123C176.576 144.849 175.612 146.359 174.562 147.79C173.977 148.587 173.123 149.333 173.238 150.521C174.324 150.793 175.18 150.361 176.011 150.089C187.973 146.182 200.121 145.007 212.667 146.61C226.712 148.405 238.549 154.363 248.085 164.617C260.017 177.448 267.642 192.189 266.945 210.355C266.587 219.669 264.761 228.434 258.966 236.008C251.442 245.843 241.468 251.263 229.102 250.67C219.211 250.195 209.507 247.958 200.929 242.476C191.316 236.333 182.816 224.247 186.333 210.323ZM163.189 268.89C174.032 284.526 188.895 294.951 206.74 300.723C224.731 306.543 242.837 306.148 260.498 298.828C260.347 297.751 259.187 298.565 259.167 297.583C260.192 297.146 261.215 296.667 262.272 296.277C262.889 296.048 263.854 295.662 264.087 296.453C264.497 297.839 265.221 297.109 265.82 296.898C272.665 294.489 278.822 290.782 283.934 285.732C290.358 279.388 296.377 272.669 301.264 264.946C305.65 258.017 309.244 250.809 311.689 243.003C311.878 242.397 311.992 241.816 311.661 241.244C309.622 237.728 307.063 234.534 305.485 230.682C304.615 231.283 304.588 232.015 304.35 232.627C302.502 237.37 301.032 242.255 298.893 246.89C293.879 257.756 286.996 267.451 277.853 274.978C261.721 288.259 242.771 293.727 222.042 290.883C201.252 288.032 184.216 278.025 172.467 260.424C160.653 242.725 159.018 223.747 168.857 204.665C175.445 191.887 186.224 183.959 200.899 182.704C210.309 181.899 219.535 183.344 228.169 187.538C229.498 188.184 230.767 189.028 232.854 189.189C231.714 187.698 230.937 186.496 229.981 185.46C224.594 179.618 217.675 176.704 210.029 175.359C194.279 172.588 180.453 176.579 168.939 187.727C161.785 194.653 157.392 203.29 154.882 212.863C152.056 223.637 151.225 234.583 152.924 245.619C154.236 254.144 158.293 261.543 163.189 268.89ZM104.397 270.643C97.8024 282.626 91.2195 294.615 84.3566 306.449C82.3754 309.865 80.489 313.344 78.7368 316.882C77.5299 319.319 78.6314 321.075 81.3203 321.345C82.3 321.444 83.2954 321.41 84.2833 321.4C93.0164 321.308 101.749 321.163 110.482 321.119C129.327 321.026 148.173 321.001 167.018 320.894C169.006 320.883 171.044 320.853 173.129 320.257C172.299 318.174 170.651 317.281 169.236 316.194C165.924 313.648 162.516 311.225 159.242 308.631C148.398 300.04 139.52 289.718 132.597 277.753C127.107 268.263 123.704 257.961 121.228 247.328C120.993 246.316 120.775 245.295 119.88 244.304C114.702 253.101 109.626 261.724 104.397 270.643ZM208.265 196.973C206.196 197.78 204.237 198.786 202.666 200.389C194.907 208.306 192.333 219.923 200.812 229.424C204.399 233.443 208.735 236.067 214.549 236.443C218.544 236.702 221.728 235.059 225.271 234.164C234.834 231.748 240.519 218.043 235.974 208.485C230.744 197.486 220.168 193.062 208.265 196.973ZM222.638 85.7135C221.135 83.162 219.681 80.58 218.116 78.0675C216.526 75.515 216.055 75.5496 214.44 78.0964C208.664 87.206 203.499 96.677 198.007 105.954C197.608 106.628 196.791 107.339 197.516 108.192C198.13 108.916 199.04 108.619 199.876 108.561C202.829 108.355 205.785 108.086 208.741 108.059C212.592 108.025 212.59 108.114 213.191 104.598C213.209 104.489 213.404 104.41 213.587 104.258C213.813 104.405 214.119 104.515 214.29 104.732C215.813 106.667 217.483 107.407 219.671 105.65C220.46 105.017 221.224 105.474 221.9 106.091C225.87 109.712 230.959 108.729 235.792 109.495C232.093 101.207 227.17 93.7587 222.638 85.7135ZM242.928 124.34C238.96 122.396 234.872 120.675 230.573 119.721C218.139 116.961 205.677 116.012 193.184 119.637C188.467 121.006 187.08 122.392 186.432 127.88C192.692 126.545 198.982 126.706 205.248 126.392C210.827 126.112 216.398 126.267 221.792 127.454C234.98 130.358 246.859 136.107 257.143 144.975C257.329 145.136 257.549 145.48 257.85 145.035C255.273 140.921 252.478 136.893 250.617 132.409C249.096 128.743 246.845 126.058 242.928 124.34Z" fill="url(#paint0_linear_35_103)"/>
<path d="M178.996 309.603C178.561 309.223 178.107 309.001 178.35 308.125C182.196 310.259 185.975 312.356 189.754 314.453C189.648 314.675 189.541 314.898 189.435 315.12C185.665 314.019 182.2 312.263 178.996 309.603Z" fill="url(#paint1_linear_35_103)"/>
<path d="M205.68 222.433C201.643 215.744 205.162 206.91 211.171 204.185C216.438 201.796 222.723 203.092 226.222 207.515C229.995 212.283 230.048 219.026 226.415 223.576C220.323 231.205 208.966 229.366 205.68 222.433ZM213.285 210.686C211.775 212.181 211.155 213.908 212.469 215.761C213.539 217.269 214.971 218.459 217.047 217.977C218.728 217.587 219.931 216.563 220.17 214.784C220.431 212.837 219.777 211.173 218.094 210.074C216.513 209.041 214.953 209.147 213.285 210.686Z" fill="url(#paint2_linear_35_103)"/>
</g>
<defs>
<filter id="filter0_d_35_103" x="-31" y="-8" width="507.116" height="456" filterUnits="userSpaceOnUse" color-interpolation-filters="sRGB">
<feFlood flood-opacity="0" result="BackgroundImageFix"/>
<feColorMatrix in="SourceAlpha" type="matrix" values="0 0 0 0 0 0 0 0 0 0 0 0 0 0 0 0 0 0 127 0" result="hardAlpha"/>
<feMorphology radius="1" operator="dilate" in="SourceAlpha" result="effect1_dropShadow_35_103"/>
<feOffset dx="5" dy="8"/>
<feGaussianBlur stdDeviation="35"/>
<feColorMatrix type="matrix" values="0 0 0 0 0.0461537 0 0 0 0 0.872821 0 0 0 0 1 0 0 0 0.2 0"/>
<feBlend mode="normal" in2="BackgroundImageFix" result="effect1_dropShadow_35_103"/>
<feBlend mode="normal" in="SourceGraphic" in2="effect1_dropShadow_35_103" result="shape"/>
</filter>
<linearGradient id="paint0_linear_35_103" x1="216.875" y1="63.52" x2="216.875" y2="332.104" gradientUnits="userSpaceOnUse">
<stop stop-color="#1E1D40"/>
<stop offset="0.5" stop-color="#657CBF"/>
<stop offset="1" stop-color="#55A6D9"/>
</linearGradient>
<linearGradient id="paint1_linear_35_103" x1="184.018" y1="308.125" x2="184.018" y2="315.12" gradientUnits="userSpaceOnUse">
<stop stop-color="#1E1D40"/>
<stop offset="0.5" stop-color="#657CBF"/>
<stop offset="1" stop-color="#55A6D9"/>
</linearGradient>
<linearGradient id="paint2_linear_35_103" x1="216.523" y1="203.003" x2="216.523" y2="228.522" gradientUnits="userSpaceOnUse">
<stop stop-color="#1E1D40"/>
<stop offset="0.5" stop-color="#657CBF"/>
<stop offset="1" stop-color="#55A6D9"/>
</linearGradient>
</defs>
</svg>
