<svg width="1367" height="1296" viewBox="0 0 1367 1296" fill="none" xmlns="http://www.w3.org/2000/svg">
<g filter="url(#filter0_d_154_24)">
<path d="M1029.73 136.445C1107.66 236.346 1156.4 347.396 1171.04 457.923C1176.64 500.687 1176.81 553.382 1171.47 594.317C1159.33 687.425 1122.9 771.213 1064.6 840.194C1053.75 853.085 1030.42 876.601 1017.76 887.575C925.957 966.921 810.992 1000.89 706.533 979.376C580.373 953.508 479.359 847.946 487.282 750.135C490.296 712.073 504.333 684.725 522.761 681.241L525.775 680.631L526.378 691.431C529.048 737.593 542.913 776.264 568.834 809.449C581.493 825.649 602.849 844.113 621.623 855.001C668.728 882.262 732.799 892.714 791.53 882.785C886.43 866.759 967.465 792.203 1002.26 689.08C1013.36 656.157 1018.02 627.153 1017.93 591.966C1017.76 515.233 997.778 445.293 958.681 384.499C924.493 331.282 877.56 288.692 819.517 258.033C718.762 204.817 590.018 195.149 476.948 232.427C417.614 251.937 362.327 283.466 313.758 325.447C300.151 337.292 268.633 369.257 257.179 382.931C193.281 459.49 151.601 552.162 137.736 649.015C133.861 676.015 133 688.644 133 722.177C133 756.842 134.033 772.258 138.167 802.307C153.151 910.482 199.396 1010.82 274.058 1097.13C290.248 1115.86 327.02 1152.61 338.731 1161.67C341.229 1163.67 341.229 1163.67 338.215 1159.84C269.408 1072.74 220.838 970.318 201.893 871.985C193.97 830.875 191.473 801.958 192.162 758.061C193.023 701.883 200.171 658.857 216.963 608.253C239.353 540.491 275.867 480.829 325.383 430.835C374.039 381.625 429.239 347.047 491.587 326.841C507.174 321.789 520.522 318.305 535.765 315.518C560.222 310.902 567.628 310.292 597.941 310.292C623.259 310.205 627.823 310.466 639.707 312.208C710.495 322.834 773.273 354.363 819.776 402.615C861.887 446.426 883.932 498.771 879.971 545.63C876.699 583.866 862.834 610.692 844.491 614.176L841.477 614.785L840.874 603.985C839.583 581.95 836.396 564.095 830.368 545.891C811.336 488.32 769.742 445.816 711.183 424.303C685.865 414.983 658.825 410.193 626.704 409.322C587.348 408.277 554.366 414.374 520.006 429.267C435.526 465.761 369.303 554.775 353.027 653.805C348.032 684.289 347.86 717.909 352.596 755.709C358.366 802.481 374.297 851.343 396.946 891.843C418.475 930.34 449.821 967.531 484.181 995.402C538.779 1039.65 606.897 1069.35 678.545 1080.06C772.843 1094.17 865.331 1080.15 949.294 1038.86C1000.19 1013.87 1040.06 984.863 1081.57 943.056C1132.81 891.233 1170.18 834.01 1197.65 765.551C1216.6 718.17 1227.97 670.092 1233.22 615.047C1234.86 597.888 1234.6 544.846 1232.79 524.901C1221.34 400.961 1175.87 294.353 1093.62 198.72C1081.65 184.784 1054.44 157 1040.58 144.458C1025.94 131.219 1025.33 130.784 1029.73 136.445Z" fill="#0C0C22"/>
</g>
<defs>
<filter id="filter0_d_154_24" x="0.600006" y="0.600006" width="1366.11" height="1294.8" filterUnits="userSpaceOnUse" color-interpolation-filters="sRGB">
<feFlood flood-opacity="0" result="BackgroundImageFix"/>
<feColorMatrix in="SourceAlpha" type="matrix" values="0 0 0 0 0 0 0 0 0 0 0 0 0 0 0 0 0 0 127 0" result="hardAlpha"/>
<feOffset/>
<feGaussianBlur stdDeviation="66.2"/>
<feComposite in2="hardAlpha" operator="out"/>
<feColorMatrix type="matrix" values="0 0 0 0 0.875962 0 0 0 0 0.952076 0 0 0 0 1 0 0 0 1 0"/>
<feBlend mode="normal" in2="BackgroundImageFix" result="effect1_dropShadow_154_24"/>
<feBlend mode="normal" in="SourceGraphic" in2="effect1_dropShadow_154_24" result="shape"/>
</filter>
</defs>
</svg>
