<svg version="1.1" id="Layer_1" xmlns="http://www.w3.org/2000/svg" xmlns:xlink="http://www.w3.org/1999/xlink" x="0px" y="0px"
	 width="100%" viewBox="0 0 400 400" enable-background="new 0 0 400 400" xml:space="preserve">
<path fill="#000000" opacity="1.000000" stroke="none" 
	d="
M153.615479,318.866821 
	C134.177933,325.883759 116.947289,321.648621 102.176842,308.778046 
	C89.862846,298.047974 88.744293,273.918732 98.729256,260.946350 
	C103.565422,254.663284 110.197227,252.522247 117.725426,253.409592 
	C121.426216,253.845795 123.124191,253.163315 123.999092,249.298309 
	C126.201393,239.569336 128.764404,229.918076 131.372131,220.286926 
	C132.316360,216.799652 130.821793,214.149551 129.289505,211.365067 
	C120.053421,194.581177 111.295097,177.558548 104.515793,159.608398 
	C99.621414,146.649124 100.474434,133.740906 106.186905,121.279121 
	C110.816200,111.180283 118.574501,105.233009 130.058640,104.158005 
	C150.105896,102.281418 170.814011,113.799309 175.644394,132.087830 
	C177.737885,140.014099 177.755875,147.834930 175.428711,155.705688 
	C171.539474,168.859680 164.506363,174.175583 150.859589,173.165176 
	C146.659286,172.854202 145.425964,174.266403 144.571045,177.871857 
	C142.038589,188.552170 139.279694,199.180008 136.499863,209.799713 
	C135.695633,212.872086 136.067856,215.478271 137.697922,218.286804 
	C145.559799,231.832413 153.915863,245.049759 162.817947,257.937805 
	C168.528351,266.205078 173.135727,274.978333 174.409821,285.220795 
	C176.076508,298.619446 170.839828,308.496521 159.606079,315.498383 
	C157.772690,316.641113 155.846191,317.634430 153.615479,318.866821 
M165.479111,304.914307 
	C170.601242,298.050995 171.807281,290.514984 169.821732,282.216919 
	C167.963928,274.452728 164.335159,267.579926 159.911224,261.083862 
	C151.937302,249.375031 144.122864,237.571075 137.020264,225.304596 
	C136.236740,223.951416 135.964966,222.123215 133.816010,221.257980 
	C131.289139,231.320023 128.925079,241.305359 126.210938,251.194595 
	C125.392227,254.177643 125.943970,255.959396 128.130936,258.144043 
	C132.805786,262.813995 134.578674,268.838989 132.792679,275.165314 
	C131.144684,281.002838 125.932549,282.919434 120.419403,283.813416 
	C114.693901,284.741852 109.608055,281.693512 108.818108,276.919067 
	C107.950340,271.674286 110.917213,268.418457 117.364731,267.242584 
	C121.448860,266.497742 120.522789,262.689972 121.058960,260.102478 
	C121.585396,257.561951 119.104141,257.481750 117.298141,257.342133 
	C111.715057,256.910461 106.656342,258.092682 102.855621,262.552032 
	C93.567291,273.450134 94.052750,294.937897 104.055038,305.110321 
	C116.730232,318.001160 147.271210,326.102142 165.479111,304.914307 
M160.279907,149.816650 
	C160.228409,156.547882 159.216537,157.837524 152.801666,158.285141 
	C147.181473,158.677307 148.271103,163.521469 147.706635,166.537354 
	C147.124649,169.646820 150.630356,169.529297 152.842880,169.608566 
	C160.154114,169.870514 165.781815,166.927948 169.187317,160.308075 
	C173.415817,152.088379 174.023224,143.293564 171.953888,134.526505 
	C168.553864,120.121796 153.866943,109.014008 138.522995,108.287201 
	C128.659760,107.820000 119.385696,108.608154 113.179680,117.690659 
	C106.817543,127.001648 104.248932,137.295212 105.752419,148.500763 
	C107.197517,159.271194 112.486282,168.662109 116.946228,178.294998 
	C121.881020,188.953522 127.006668,199.550049 133.678024,210.552658 
	C136.876862,197.884338 139.800461,186.302414 142.728043,174.721497 
	C142.891251,174.075912 143.059418,173.429123 143.273682,172.799362 
	C143.905624,170.941910 142.519836,170.073700 141.455536,169.057220 
	C138.017395,165.773621 136.640991,161.494720 135.917068,157.013519 
	C134.938370,150.955124 139.179688,145.105804 145.683289,143.176895 
	C152.603821,141.124329 157.347824,143.024506 160.279907,149.816650 
M117.346359,271.540802 
	C114.469643,271.128906 113.436401,272.790558 113.231285,275.278900 
	C113.057213,277.390625 114.087936,278.755920 116.062569,279.443970 
	C120.533554,281.001862 126.915390,278.266937 128.785416,273.991333 
	C130.517609,270.030884 128.248184,263.725403 124.457664,261.516785 
	C119.979500,265.373138 124.232536,269.054291 125.001221,273.124847 
	C122.522667,271.402985 119.332024,277.508301 117.346359,271.540802 
M155.119629,148.265427 
	C150.136948,145.580933 144.258148,146.619080 141.490356,150.672226 
	C138.673706,154.796951 140.240143,161.996048 144.938492,165.537125 
	C145.302841,162.453659 148.009491,159.709854 145.592728,156.607468 
	C144.602127,155.335815 142.375336,153.924988 144.201584,152.710236 
	C145.942078,151.552521 148.896454,150.642639 150.931229,152.690979 
	C152.229034,153.997437 153.274445,155.209900 155.050751,154.003265 
	C157.145752,152.580139 156.844070,150.690414 155.119629,148.265427 
z"/>
<path fill="#000000" opacity="1.000000" stroke="none" 
	d="
M218.896027,270.891663 
	C216.303467,273.722198 213.965393,276.305908 211.604248,278.868347 
	C209.364456,281.299072 207.478607,281.269897 205.834915,278.155304 
	C202.736343,272.283844 199.500336,266.484955 196.402023,260.613373 
	C194.897095,257.761414 195.371857,256.015015 199.070160,255.589081 
	C209.106995,254.433121 219.113388,253.014923 229.142944,251.791595 
	C230.543304,251.620789 232.352692,251.179611 233.226410,252.777298 
	C234.231384,254.615051 232.721939,255.896240 231.635941,257.090393 
	C227.503143,261.634857 223.310638,266.125031 218.896027,270.891663 
M202.180450,262.521118 
	C204.393921,266.503998 206.038788,270.852783 209.571823,274.711334 
	C215.237320,268.593109 220.547043,262.859100 226.764664,256.144623 
	C218.445648,257.239319 211.561691,258.094543 204.697983,259.089355 
	C203.256714,259.298279 200.936203,259.078705 202.180450,262.521118 
z"/>
<path fill="#000000" opacity="1.000000" stroke="none" 
	d="
M185.605179,277.836792 
	C186.462265,285.496094 187.029617,292.725006 185.263702,300.400238 
	C181.688965,298.758301 181.948914,296.489227 182.205307,294.422729 
	C183.736710,282.080170 181.008453,270.984650 172.807205,261.427856 
	C172.484268,261.051575 172.213898,260.622650 171.965103,260.191681 
	C171.222855,258.905945 170.093506,257.479919 171.954041,256.336945 
	C173.443771,255.421753 174.462662,256.666595 175.255814,257.720856 
	C179.762634,263.711212 184.229782,269.733459 185.605179,277.836792 
z"/>
<path fill="#000000" opacity="1.000000" stroke="none" 
	d="
M239.879486,255.406433 
	C236.648209,253.176331 235.490387,250.521027 236.732666,247.052734 
	C237.702362,244.345490 239.926514,243.138977 242.507370,243.112320 
	C245.319733,243.083237 247.569580,244.482941 248.661743,247.305344 
	C250.614136,252.350723 246.413498,256.475769 239.879486,255.406433 
z"/>
<path fill="#000000" opacity="1.000000" stroke="none" 
	d="
M188.198669,258.604919 
	C195.401062,266.575745 197.216232,275.799133 196.335922,285.798889 
	C196.212875,287.196655 196.627960,289.257721 194.383896,289.080536 
	C192.296539,288.915771 192.715408,286.889465 192.709808,285.485168 
	C192.693863,281.488678 192.575745,277.533905 191.744400,273.581970 
	C190.818924,269.182617 188.164398,265.775360 185.928177,262.088501 
	C184.662292,260.001434 183.896805,257.807587 188.198669,258.604919 
z"/>
</svg>