<svg version="1.1" id="Layer_1" xmlns="http://www.w3.org/2000/svg" xmlns:xlink="http://www.w3.org/1999/xlink" x="0px" y="0px"
	 width="100%" viewBox="0 0 400 400" enable-background="new 0 0 400 400" xml:space="preserve">
<path fill="#000000" opacity="1.000000" stroke="none" 
	d="
M210.736176,233.494598 
	C202.654541,229.146622 199.330734,222.425629 199.766541,213.910934 
	C199.968155,209.971573 198.441010,208.300781 194.841843,207.283157 
	C184.915741,204.476746 175.034683,201.495468 165.215393,198.335968 
	C162.216782,197.371124 160.104279,198.602066 157.757156,199.887405 
	C140.941025,209.096252 123.837509,217.705215 105.590240,223.764694 
	C94.664047,227.393021 83.597137,228.905167 72.279785,225.205673 
	C59.342564,220.976639 51.089256,209.317993 49.528957,195.785995 
	C46.465755,169.219711 75.918961,142.827850 107.044380,156.038803 
	C115.728149,159.724548 120.512619,166.435776 120.162575,175.925873 
	C119.990097,180.601746 121.854698,182.323242 125.952385,183.462784 
	C136.373657,186.360947 146.726440,189.516708 157.044357,192.767075 
	C159.532440,193.550858 161.384537,193.113556 163.589432,191.915710 
	C178.370804,183.885422 192.702209,175.038788 207.836395,167.646378 
	C220.066177,161.672623 232.657425,160.463013 245.634552,164.571457 
	C264.054871,170.403152 271.668823,182.397400 269.104279,201.467331 
	C266.727386,219.142029 254.515701,236.149536 233.818558,237.877304 
	C225.804459,238.546310 218.269379,237.106689 210.736176,233.494598 
M203.080963,174.635452 
	C191.098373,181.320602 179.115768,188.005768 165.984924,195.331528 
	C177.814240,198.926666 188.289551,202.088516 198.746490,205.309952 
	C200.476822,205.843018 201.580673,205.171600 202.661209,203.954269 
	C203.651794,202.838287 204.693237,201.735458 205.859390,200.812714 
	C211.832520,196.086304 220.271576,195.366791 224.844971,199.124146 
	C229.602875,203.033035 231.499557,211.816650 228.814896,217.418594 
	C226.998245,221.209229 223.954880,222.665207 219.859100,222.302261 
	C216.571625,222.010941 213.459686,220.631699 213.238052,217.330444 
	C212.834641,211.321381 208.783310,211.482895 204.847900,210.851456 
	C201.635742,218.088562 206.691757,226.756317 212.336700,229.667145 
	C230.448395,239.006485 255.353348,233.716934 263.470886,208.035156 
	C265.671021,201.074524 265.635559,193.806107 264.339233,186.769775 
	C262.821991,178.534103 256.764954,173.709473 249.504166,170.420105 
	C233.559830,163.196762 218.393448,165.850876 203.080963,174.635452 
M81.282013,157.655441 
	C70.972916,160.272812 63.848400,167.083008 58.151680,175.576096 
	C48.004601,190.704147 53.898869,217.316025 76.928024,222.185883 
	C83.319313,223.537415 89.871567,223.509247 96.245193,221.958603 
	C116.997223,216.909836 135.650970,206.935699 154.261749,196.896851 
	C154.575958,196.727356 154.668228,196.146378 155.039673,195.408646 
	C144.476242,192.223480 134.106323,189.219528 123.828835,185.927002 
	C120.505341,184.862259 118.394875,184.909164 115.764450,187.911453 
	C111.087250,193.249893 104.703476,195.416260 97.697655,193.173508 
	C91.164619,191.082153 88.878578,185.429184 87.932503,179.252136 
	C87.087830,173.737137 90.786095,168.719177 95.995758,167.792679 
	C101.483635,166.816711 103.890503,168.648666 105.390343,174.943207 
	C105.830627,176.790985 111.842903,180.117554 113.953163,179.476578 
	C116.941971,178.568756 115.913406,176.007538 115.797958,174.009125 
	C115.362953,166.478607 110.947502,161.451965 102.324318,158.634933 
	C95.694771,156.469208 88.903114,156.567917 81.282013,157.655441 
M104.873398,189.549149 
	C108.201942,188.316940 111.880882,187.571259 113.586441,183.209457 
	C109.810646,182.340103 106.707779,178.596558 102.757393,182.838272 
	C101.759926,183.909302 100.054955,182.885254 99.984413,181.252518 
	C99.908928,179.505417 99.740318,177.780869 100.668465,175.964676 
	C102.068214,173.225647 100.247551,171.163879 97.180450,171.735046 
	C94.474136,172.239044 92.816124,173.852188 92.343544,176.688232 
	C91.134117,183.946274 96.314430,189.695221 104.873398,189.549149 
M221.967209,202.240921 
	C215.419388,199.734085 209.749588,201.536621 206.867981,207.181396 
	C210.531754,209.362885 214.275955,210.258987 218.226440,207.852142 
	C220.338776,211.142746 219.694824,213.707108 217.338608,215.830215 
	C218.499985,218.017410 220.069214,218.758804 222.033554,218.160736 
	C224.108017,217.529129 225.326523,215.943573 225.595795,213.791641 
	C226.107101,209.705551 225.699066,205.832993 221.967209,202.240921 
z"/>
<path fill="#000000" opacity="1.000000" stroke="none" 
	d="
M325.636200,183.262268 
	C329.571777,184.731750 333.200226,185.932617 336.725861,187.383362 
	C340.538116,188.952026 340.817749,190.658707 337.456268,192.757416 
	C328.304901,198.471008 319.038879,204.001343 309.803467,209.579773 
	C306.740967,211.429611 305.094055,210.310043 304.776428,206.947769 
	C303.904053,197.713760 303.056885,188.477188 302.254852,179.236847 
	C301.894196,175.082001 304.421661,175.435730 307.070618,176.389313 
	C313.158478,178.580841 319.214722,180.860062 325.636200,183.262268 
M308.301392,200.129669 
	C308.516479,201.525650 307.819092,203.183640 310.038544,204.549026 
	C317.197357,200.176315 324.607056,195.650375 333.009064,190.518295 
	C323.656128,187.022476 315.625153,183.554581 306.412354,181.054489 
	C307.107849,187.848419 307.693390,193.568542 308.301392,200.129669 
z"/>
<path fill="#000000" opacity="1.000000" stroke="none" 
	d="
M289.648071,199.546265 
	C290.409821,191.785049 289.157959,184.897049 285.413422,178.497345 
	C284.634705,177.166458 283.072113,175.461090 285.215118,174.232025 
	C287.205658,173.090393 288.194794,175.016052 288.993103,176.418610 
	C294.156128,185.489716 295.489105,195.100754 292.784943,205.207703 
	C292.014160,208.088486 291.134613,210.947006 290.145966,213.759872 
	C289.624207,215.244247 289.199585,217.072784 286.246704,216.829269 
	C285.268677,210.817688 289.390259,205.716995 289.648071,199.546265 
z"/>
</svg>