<svg version="1.1" id="Layer_1" xmlns="http://www.w3.org/2000/svg" xmlns:xlink="http://www.w3.org/1999/xlink" x="0px" y="0px"
	 width="100%" viewBox="0 0 400 400" enable-background="new 0 0 400 400" xml:space="preserve">
<path fill="#000000" opacity="1.000000" stroke="none" 
	d="
M251.597229,256.675476 
	C252.173477,251.781830 252.539429,247.300247 253.315353,242.890808 
	C253.910645,239.507889 252.733948,238.266998 249.433365,238.343323 
	C245.105484,238.443436 240.772263,238.399063 236.443298,238.315018 
	C235.039597,238.287766 233.052429,238.543732 233.213074,236.290817 
	C233.342972,234.469269 235.114410,234.727936 236.373047,234.708435 
	C240.869125,234.638794 245.368576,234.577774 249.862885,234.681366 
	C252.561981,234.743591 253.844284,233.711533 253.923141,230.943253 
	C254.184509,221.767960 254.195953,212.603180 251.445465,203.732269 
	C246.641052,188.237045 234.381378,181.448700 217.874069,184.722427 
	C201.397736,187.990036 190.989639,198.678879 183.561035,212.781860 
	C174.905075,229.214935 171.104309,247.066895 169.339294,265.402435 
	C168.813904,270.860168 168.639313,276.351654 168.300491,281.827454 
	C168.206696,283.343689 168.204620,285.029327 166.157883,285.179565 
	C164.125610,285.328705 163.639099,283.819031 163.655518,282.207520 
	C163.974915,250.863174 168.682510,220.655197 189.523849,195.629578 
	C200.212570,182.794876 214.613632,177.351425 231.460358,179.626968 
	C243.363297,181.234741 251.051682,188.188690 255.129272,199.234161 
	C259.787567,211.852585 260.135895,224.970078 258.762482,238.139450 
	C257.591217,249.370300 255.771881,260.532867 254.550873,271.759552 
	C254.081436,276.075867 255.290955,280.328674 256.839142,284.411285 
	C257.485718,286.116394 258.457123,288.173737 255.952957,289.028290 
	C253.659119,289.811035 252.713547,287.797974 252.024643,286.095490 
	C248.144913,276.507660 249.662827,266.811523 251.597229,256.675476 
z"/>
<path fill="#000000" opacity="1.000000" stroke="none" 
	d="
M222.697571,131.385788 
	C219.588898,131.182449 216.888199,131.261536 214.303055,130.753113 
	C210.077072,129.921997 208.699219,127.447479 210.411484,123.433517 
	C214.583771,113.652725 218.993790,103.973312 223.313217,94.255379 
	C224.255005,92.136551 225.624954,90.592384 228.204681,90.762833 
	C230.818878,90.935547 231.901688,92.775078 232.549057,94.938118 
	C235.689590,105.431488 238.874786,115.913048 241.848846,126.453896 
	C242.974625,130.443970 240.824448,132.837204 236.550415,132.592606 
	C232.078064,132.336609 227.621109,131.811707 222.697571,131.385788 
z"/>
<path fill="#000000" opacity="1.000000" stroke="none" 
	d="
M229.259125,158.470291 
	C239.044403,160.630402 247.736450,164.323883 255.676636,169.692810 
	C257.434937,170.881699 260.569336,172.187073 258.427765,174.973541 
	C256.613831,177.333740 254.458313,175.022018 252.789398,173.905365 
	C236.429535,162.959106 218.748672,159.211441 199.559372,164.280838 
	C189.217377,167.012985 181.400940,173.115204 176.706528,182.911270 
	C176.418823,183.511642 176.148575,184.123566 175.815536,184.698441 
	C174.955368,186.183151 173.965332,187.840775 171.965912,186.688553 
	C170.093643,185.609589 170.704788,183.810181 171.471680,182.270523 
	C173.554138,178.089722 175.806580,174.006561 179.157013,170.665314 
	C190.796478,159.057770 205.274597,156.168762 220.970062,157.176392 
	C223.610031,157.345901 226.221207,157.963699 229.259125,158.470291 
z"/>
<path fill="#000000" opacity="1.000000" stroke="none" 
	d="
M198.094666,148.067749 
	C193.215897,149.606369 189.069702,151.608017 185.657684,154.994690 
	C184.411911,156.231186 182.846130,158.024704 181.031006,156.063278 
	C179.082382,153.957596 181.003143,152.334656 182.431473,151.032440 
	C188.146576,145.821976 195.089264,143.162903 202.564850,141.729233 
	C217.273972,138.908356 231.319946,142.567245 245.361679,146.183945 
	C247.615616,146.764496 249.865509,147.397324 252.054306,148.181671 
	C253.608490,148.738571 255.496231,149.499847 254.696198,151.656464 
	C253.952286,153.661804 252.059097,153.378662 250.405411,152.875732 
	C242.123611,150.356934 233.771393,148.115158 225.186676,146.918564 
	C216.235367,145.670868 207.290451,145.339157 198.094666,148.067749 
z"/>
</svg>