<svg version="1.1" id="Layer_1" xmlns="http://www.w3.org/2000/svg" xmlns:xlink="http://www.w3.org/1999/xlink" x="0px" y="0px"
	 width="100%" viewBox="0 0 400 400" enable-background="new 0 0 400 400" xml:space="preserve">
<path fill="#000000" opacity="1.000000" stroke="none" 
	d="
M216.040436,256.414124 
	C205.056351,251.791641 200.963287,241.080780 205.401337,229.758301 
	C211.456482,214.310257 234.219376,202.439804 251.087418,214.723450 
	C259.413177,220.786453 263.193970,228.853592 261.075348,238.586746 
	C255.358383,264.851044 231.969376,280.562012 206.881058,275.460480 
	C190.087997,272.045715 184.333435,257.729126 185.224838,243.520691 
	C186.098602,229.593582 193.325134,218.391525 201.894455,207.938126 
	C202.737091,206.910217 203.599228,205.896820 204.398346,204.836014 
	C204.554733,204.628403 204.461456,204.232712 204.520462,203.400070 
	C197.374283,203.400070 190.270126,203.451782 183.167679,203.364624 
	C181.337311,203.342163 178.552246,204.103104 178.490082,201.145828 
	C178.429123,198.245941 181.139069,198.711395 183.044861,198.692383 
	C189.710693,198.625824 196.447861,198.047592 203.025131,198.809708 
	C210.348648,199.658279 214.314575,195.625153 218.939621,190.263153 
	C216.407501,190.263153 214.632782,190.260956 212.858063,190.263489 
	C186.692413,190.300919 160.526703,190.371948 134.361237,190.317673 
	C132.132919,190.313049 128.335541,191.593872 128.244446,188.068512 
	C128.147980,184.334732 132.012405,185.753906 134.169617,185.727478 
	C162.655960,185.378265 191.143982,185.031693 219.631561,185.033325 
	C225.183792,185.033630 229.077255,182.982224 233.003403,178.441910 
	C220.610214,178.441910 208.849091,178.445801 197.087967,178.440079 
	C192.091522,178.437653 187.094696,178.445999 182.098846,178.384216 
	C180.433670,178.363617 178.429428,178.342499 178.484497,175.996918 
	C178.539124,173.670441 180.547272,173.725983 182.210770,173.721817 
	C194.710129,173.690460 207.209610,173.710358 219.708969,173.678009 
	C225.860672,173.662079 232.012848,173.602493 238.163040,173.476105 
	C239.117630,173.456497 240.249985,173.219711 240.983566,172.664841 
	C249.746155,166.036835 259.017731,159.924988 266.284668,151.604813 
	C273.581451,143.250443 274.241272,135.209824 269.321869,126.853607 
	C264.206940,118.165245 255.928040,114.518028 244.878540,116.497551 
	C234.904907,118.284332 225.771500,122.162201 217.675415,128.377243 
	C208.067429,135.752914 206.223557,145.893158 207.593140,157.034439 
	C207.984055,160.214340 210.003601,162.826981 212.671738,164.800537 
	C222.404068,171.999359 241.548187,167.001297 246.443573,155.999237 
	C248.219131,152.008774 248.282471,147.835617 247.396805,143.751373 
	C246.438187,139.330734 243.466324,136.322250 238.944977,135.542633 
	C234.771622,134.822998 231.471298,136.824387 229.111786,140.179611 
	C227.978790,141.790771 227.008606,143.606995 226.387421,145.471222 
	C224.161545,152.151108 227.285782,155.736435 234.375229,154.792236 
	C235.196106,154.682907 235.992416,154.399887 236.807343,154.232498 
	C238.347244,153.916199 239.458694,154.508362 239.899170,156.000748 
	C240.294296,157.339508 239.399017,158.171906 238.417450,158.885010 
	C233.247574,162.640793 222.643250,158.832489 220.968887,152.619202 
	C218.281097,142.645340 227.559708,130.536102 237.814606,130.634323 
	C246.928879,130.721634 254.013916,139.023773 253.161179,149.066147 
	C252.361069,158.488846 248.337830,166.179977 239.198395,169.916016 
	C229.289536,173.966583 219.169617,175.329315 209.651215,168.737976 
	C202.850693,164.028748 201.558167,156.812714 201.965057,149.230133 
	C202.715363,135.247696 210.330673,125.801872 222.254120,119.282265 
	C230.394440,114.831223 239.044617,111.935760 248.233566,110.924347 
	C259.139587,109.723938 267.374664,114.584846 273.176056,123.439156 
	C279.019409,132.357529 278.910492,141.636032 273.272888,150.732635 
	C268.870239,157.836533 262.027435,162.474319 255.817123,167.741089 
	C253.921234,169.348953 251.958694,170.878235 249.466049,172.897675 
	C254.507492,174.164474 259.076447,173.332809 263.552429,173.673111 
	C265.355927,173.810257 268.230835,172.796234 268.281097,175.785477 
	C268.336029,179.049957 265.319489,178.268723 263.323547,178.307755 
	C257.992462,178.412064 252.638870,178.623215 247.330215,178.262375 
	C242.071533,177.904922 238.762619,180.728928 235.235260,184.044281 
	C237.238739,185.322388 239.104523,184.815933 240.858398,184.814758 
	C266.523865,184.797485 292.189301,184.729492 317.854736,184.674759 
	C319.021362,184.672272 320.193726,184.608261 321.353271,184.700409 
	C323.244354,184.850662 325.990204,184.277374 325.886749,187.188080 
	C325.782928,190.109650 322.990814,189.306320 321.159271,189.374680 
	C292.345856,190.450226 263.515411,190.257858 234.695709,190.030945 
	C227.627396,189.975311 223.170670,192.952286 218.571213,198.637848 
	C224.079208,198.637848 228.865219,198.637817 233.651215,198.637848 
	C243.983994,198.637924 254.316849,198.619736 264.649506,198.657013 
	C266.274353,198.662872 268.362061,198.499084 268.422272,200.856735 
	C268.481232,203.163818 266.481934,203.192215 264.803772,203.277664 
	C263.473480,203.345413 262.137970,203.319427 260.804779,203.320633 
	C246.471954,203.333572 232.139130,203.338913 217.806305,203.359482 
	C215.660492,203.362564 213.478775,203.106964 211.723206,204.892502 
	C202.025238,214.756104 193.738113,225.451859 190.792633,239.416473 
	C186.799530,258.347870 198.283722,272.768646 217.006851,271.548187 
	C230.863678,270.644928 242.269745,264.662781 249.881836,252.580200 
	C252.192215,248.912964 254.253754,245.091736 255.429062,240.875397 
	C259.211487,227.306152 250.367905,215.112518 236.236893,214.393845 
	C224.168625,213.780075 210.881989,224.428421 208.857224,236.336807 
	C207.893417,242.005310 210.883408,248.636307 215.403900,250.855576 
	C220.709030,253.460052 227.744308,251.440735 232.405762,245.975571 
	C236.573517,241.089203 236.705307,236.577484 232.894073,230.949905 
	C231.849594,229.407715 229.406860,227.682266 231.694839,225.906174 
	C234.337112,223.855057 235.912552,226.685532 237.241745,228.400040 
	C241.517914,233.915756 241.575104,241.730865 237.596512,247.521591 
	C232.725922,254.610580 224.253143,258.210358 216.040436,256.414124 
z"/>
<path fill="#000000" opacity="1.000000" stroke="none" 
	d="
M237.321793,149.788589 
	C234.377319,150.699570 232.392578,149.983719 231.262817,147.447083 
	C230.493729,145.720261 231.069458,144.177826 232.231720,142.873611 
	C233.497040,141.453766 235.206665,141.436005 236.826279,141.989136 
	C239.878052,143.031387 240.174240,146.040329 237.321793,149.788589 
z"/>
<path fill="#000000" opacity="1.000000" stroke="none" 
	d="
M221.375656,241.094269 
	C218.786758,239.857864 217.887054,238.088593 218.631973,235.689362 
	C219.160004,233.988693 220.326981,232.887848 222.205643,232.768631 
	C225.024490,232.589722 226.820038,234.144592 226.909180,236.715866 
	C227.018921,239.881134 224.987579,241.431213 221.375656,241.094269 
z"/>
</svg>