<svg version="1.1" id="Layer_1" xmlns="http://www.w3.org/2000/svg" xmlns:xlink="http://www.w3.org/1999/xlink" x="0px" y="0px"
	 width="100%" viewBox="0 0 400 400" enable-background="new 0 0 400 400" xml:space="preserve">
<path fill="#000000" opacity="1.000000" stroke="none" 
	d="
M224.293228,154.793213 
	C240.604996,190.551514 256.723480,225.984207 272.912231,261.384766 
	C278.093536,272.714874 277.287659,274.085724 264.778961,274.123169 
	C231.482132,274.222839 198.185242,274.297943 164.888474,274.414276 
	C157.630585,274.439636 156.116928,272.392822 159.024246,265.717072 
	C169.652359,241.313019 180.374741,216.950027 191.053238,192.567902 
	C197.259262,178.397751 203.447113,164.219650 209.649307,150.047821 
	C210.382828,148.371750 211.018143,146.632477 211.937027,145.061768 
	C214.094635,141.373657 217.563568,141.271942 219.676285,144.977539 
	C221.399567,148.000107 222.660980,151.286011 224.293228,154.793213 
M193.361572,270.580078 
	C219.203949,269.273743 245.098297,270.218689 271.965332,269.471649 
	C253.195587,228.247650 234.859970,187.977127 215.886353,146.305389 
	C197.408859,188.502335 179.587387,229.201157 161.468201,270.579834 
	C172.501862,270.579834 182.467331,270.579834 193.361572,270.580078 
z"/>
<path fill="#000000" opacity="1.000000" stroke="none" 
	d="
M157.000000,292.138977 
	C147.500687,292.132782 138.500580,292.196930 129.502304,292.096832 
	C122.993118,292.024445 121.386520,289.460175 124.146294,283.573853 
	C142.881775,243.613068 161.661377,203.672974 180.413498,163.719986 
	C187.489334,148.644257 194.530106,133.552032 201.586395,118.467125 
	C202.009674,117.562225 202.348694,116.606270 202.867538,115.760300 
	C203.759933,114.305214 204.216827,111.566284 206.528656,112.621567 
	C209.196121,113.839180 207.323593,116.147926 206.579865,117.791161 
	C203.695999,124.162888 200.621780,130.448135 197.653107,136.781845 
	C174.752197,185.641174 151.858185,234.503723 128.972549,283.370209 
	C128.488876,284.402954 128.130753,285.494537 127.726860,286.525940 
	C129.301147,288.392090 131.276260,287.656311 132.983429,287.663330 
	C149.148621,287.729828 165.314194,287.703583 181.479645,287.707092 
	C182.812714,287.707397 184.148468,287.681732 185.478134,287.755463 
	C186.973557,287.838379 188.809235,287.850952 188.818237,289.871735 
	C188.827164,291.877991 186.960602,292.032898 185.495819,292.051971 
	C178.664413,292.141144 171.831589,292.125854 164.999283,292.142700 
	C162.499542,292.148865 159.999756,292.140656 157.000000,292.138977 
z"/>
<path fill="#000000" opacity="1.000000" stroke="none" 
	d="
M153.192566,198.092743 
	C147.744034,209.343079 142.461578,220.259644 137.157913,231.165878 
	C136.577850,232.358719 135.935608,233.531494 135.208542,234.638947 
	C134.750519,235.336578 134.031509,235.878601 133.103928,235.553619 
	C131.967072,235.155304 131.629379,234.168930 131.916946,233.142349 
	C132.271576,231.876343 132.809814,230.647888 133.385437,229.459763 
	C142.947388,209.723022 152.525711,189.994247 162.110062,170.268387 
	C162.545090,169.373016 163.044739,168.505753 163.562881,167.654999 
	C164.109741,166.757111 164.837585,166.028717 165.987106,166.516083 
	C167.360062,167.098236 167.420410,168.316040 166.951050,169.459442 
	C166.005569,171.762634 164.959229,174.027985 163.870636,176.268204 
	C160.385178,183.440811 156.861420,190.594803 153.192566,198.092743 
z"/>
</svg>